<?xml version="1.0" encoding="UTF-8" standalone="no"?>
<!DOCTYPE svg PUBLIC "-//W3C//DTD SVG 1.1//EN" "http://www.w3.org/Graphics/SVG/1.1/DTD/svg11.dtd">
<svg width="100%" height="100%" viewBox="0 0 366 207" version="1.1" xmlns="http://www.w3.org/2000/svg" xmlns:xlink="http://www.w3.org/1999/xlink" xml:space="preserve" xmlns:serif="http://www.serif.com/" style="fill-rule:evenodd;clip-rule:evenodd;stroke-linecap:round;stroke-linejoin:round;stroke-miterlimit:1.5;">
    <rect x="0" y="0.13" width="365.297" height="206.728" style="fill:#313f4c;"/>
    <g>
        <g id="washing-liquid" serif:id="washing liquid">
            <rect id="washingrect" x="95.467" y="0.392" width="87.06" height="102.757" style="fill:#f7f2ef;fill-opacity:0.74;stroke:#000;stroke-width:0.73px;"/>
            <g id="bubble5">
                <ellipse cx="112.354" cy="86.514" rx="4.57" ry="4.544" style="fill:#cfdfd8;stroke:#000;stroke-width:1px;"/>
                <path d="M111.42,83.659C109.216,85.178 109.115,87.32 111.416,88.94" style="fill:none;stroke:#000;stroke-width:1px;"/>
            </g>
            <g>
                <ellipse cx="109.728" cy="52.333" rx="6.987" ry="6.949" style="fill:#cfdfd8;stroke:#000;stroke-width:1px;"/>
                <path d="M108.299,47.967C104.929,50.289 104.775,53.565 108.294,56.041" style="fill:none;stroke:#000;stroke-width:1px;"/>
            </g>
            <g id="bubble2">
                <ellipse cx="141.669" cy="77.169" rx="6.027" ry="5.993" style="fill:#cfdfd8;stroke:#000;stroke-width:1px;"/>
                <path d="M140.437,73.403C137.531,75.406 137.398,78.232 140.433,80.367" style="fill:none;stroke:#000;stroke-width:1px;"/>
            </g>
            <g id="bubble6">
                <ellipse cx="105.044" cy="73.182" rx="6.856" ry="6.818" style="fill:#f2eee2;stroke:#000;stroke-width:1px;"/>
                <path d="M103.642,68.898C100.336,71.176 100.185,74.391 103.637,76.82" style="fill:none;stroke:#000;stroke-width:1px;"/>
            </g>
            <g id="bubble3">
                <ellipse cx="129.972" cy="91.503" rx="10.052" ry="9.996" style="fill:#f2eee2;stroke:#000;stroke-width:1px;"/>
                <path d="M127.916,85.223C123.069,88.563 122.847,93.276 127.909,96.838" style="fill:#f2eee2;stroke:#000;stroke-width:1px;"/>
            </g>
            <g id="bubble4">
                <ellipse cx="122.833" cy="71.551" rx="7.342" ry="7.301" style="fill:#cfdfd8;stroke:#000;stroke-width:1px;"/>
                <path d="M121.331,66.964C117.791,69.403 117.629,72.846 121.326,75.447" style="fill:none;stroke:#000;stroke-width:1px;"/>
            </g>
            <g id="bubble1">
                <ellipse cx="149.617" cy="46.194" rx="18.042" ry="17.67" style="fill:#f1ede0;fill-opacity:0.84;stroke:#000;stroke-width:1px;"/>
                <path d="M141.447,33.713C133.328,40.62 132.955,50.366 141.435,57.733" style="fill:none;stroke:#170000;stroke-width:1px;"/>
            </g>
        </g>
        <g id="water-usage" serif:id="water usage">
            <rect id="waterrect" x="9.832" y="0.392" width="85.83" height="102.757" style="fill:#eae5db;fill-opacity:0.74;stroke:#000;stroke-width:0.73px;"/>
            <path id="water" d="M49.273,100.079C52.872,100.079 56.027,102.53 59.6,102.231C65.046,101.774 75.208,96.909 81.947,97.34C87.839,97.717 95.465,102.231 95.465,102.231L10.388,102.231C10.388,102.231 19.27,99.16 24.527,99.406C27.853,99.561 32.513,102.118 36.637,102.231C40.761,102.343 45.445,100.079 49.273,100.079Z" style="fill:#23439f;"/>
            <ellipse id="gauge-circle" serif:id="gauge circle" cx="52.491" cy="53.577" rx="36.143" ry="35.853" style="fill:#f1ede0;fill-opacity:0.84;stroke:#000;stroke-width:1px;"/>
            <path id="gauge-arrow" serif:id="gauge arrow" d="M49.138,46.414L49.165,37.721L40.093,39.939L52.678,23.099L65.16,40.015L56.102,37.742L56.075,46.394C58.51,47.633 60.178,50.145 60.178,53.038C60.178,55.948 58.492,58.471 56.034,59.703L55.963,82.978L49.026,82.956L49.098,59.641C46.706,58.387 45.075,55.9 45.075,53.038C45.075,50.16 46.724,47.661 49.138,46.414Z" style="fill:#bab9b5;fill-opacity:0.84;stroke:#000;stroke-width:1px;"/>
            <ellipse id="gauge-pivot" serif:id="gauge pivot" cx="52.719" cy="52.973" rx="5" ry="4.967" style="fill:#ef6840;fill-opacity:0.84;stroke:#000;stroke-width:1px;"/>
        </g>
        <g id="time">
            <path d="M112.434,103.177L30.213,103.177C28.05,108.24 26.932,113.665 26.935,119.16C26.942,134.008 34.993,147.152 47.277,154.711C46.379,155.223 45.694,155.637 45.433,155.828C45.304,155.922 45.179,156.017 45.057,156.112C34.019,163.846 26.942,176.265 26.935,190.204C26.932,195.748 28.204,200.743 30.405,205.844L112.507,205.368C114.703,200.279 115.708,195.776 115.71,190.247C115.717,176.106 108.445,163.52 97.135,155.802C96.894,155.627 96.64,155.456 96.372,155.288C96.187,155.172 95.836,154.968 95.371,154.707C107.663,147.141 115.718,133.977 115.71,119.116C115.708,113.636 114.591,108.226 112.434,103.177Z" style="fill:#89a5a0;"/>
            <rect id="timerect" x="9.711" y="102.577" width="129.587" height="103.717" style="fill:#9eab9f;fill-opacity:0.74;stroke:#000;stroke-width:0.84px;"/>
            <path id="timer" d="M59.727,148.238C47.305,143.875 38.457,132.704 38.451,119.622C38.448,114.252 40.234,108.639 43.117,103.987L98.886,104.154C101.774,108.803 104.192,114.22 104.195,119.59C104.201,132.93 95.012,144.292 82.207,148.478C80.587,150.197 79.645,152.252 79.645,154.459C79.645,157.075 80.968,159.477 83.174,161.359C85.61,162.237 90.4,164.913 90.311,164.932C98.715,170.48 104.2,179.607 104.195,189.915C104.192,195.285 102.671,200.559 99.783,205.208L42.847,205.181C39.964,200.529 38.448,195.252 38.451,189.882C38.456,179.63 43.891,170.552 52.221,165.005C52.008,164.964 56.615,162.463 58.591,161.689C61.037,159.761 62.522,157.23 62.522,154.459C62.522,152.148 61.489,150.004 59.727,148.238Z" style="fill:#ece8d8;stroke:#000;stroke-width:0.99px;"/>
            <path id="timerreflection" d="M42.335,204.165C41.237,202.05 40.504,199.843 40.061,197.572C39.619,195.312 39.468,192.992 39.529,190.641C39.641,185.871 40.979,181.409 43.237,177.5C45.509,173.569 48.72,170.21 52.582,167.692C52.582,167.692 52.784,167.536 52.784,167.536C53.22,167.297 54.724,166.481 56.159,165.757C57.025,165.32 57.864,164.918 58.412,164.709L59.074,164.346C61.039,163.272 62.412,161.825 63.374,160.149C64.336,158.474 64.872,156.558 65.157,154.539C65.383,152.869 64.874,150.744 63.804,148.888C62.786,147.124 61.272,145.623 59.542,144.924C56.814,143.853 54.263,142.447 51.947,140.78C49.57,139.068 47.443,137.079 45.655,134.838C42.063,130.336 39.817,124.858 39.647,118.736C39.571,116.392 39.752,114.047 40.217,111.758C40.685,109.455 41.434,107.215 42.51,105.093C41.276,107.153 40.359,109.355 39.732,111.642C39.1,113.95 38.77,116.336 38.694,118.737C38.521,125.185 40.559,131.093 44.115,136.008C45.911,138.49 48.098,140.712 50.581,142.618C53.003,144.476 55.717,146.015 58.611,147.223C59.862,147.731 60.909,148.864 61.651,150.136C62.437,151.484 62.896,153.007 62.744,154.225C62.54,155.943 62.136,157.581 61.355,159.02C60.618,160.375 59.552,161.555 58.006,162.452L57.61,162.709C57.023,162.955 56.122,163.418 55.197,163.923C53.718,164.729 52.169,165.637 51.786,165.863C51.722,165.899 51.663,165.942 51.609,165.992L51.491,166.091C47.523,168.916 44.26,172.591 42.043,176.844C39.878,180.998 38.701,185.691 38.812,190.641C38.872,193.03 39.146,195.378 39.711,197.65C40.274,199.911 41.122,202.094 42.335,204.165Z" style="fill:#808080;fill-opacity:0.35;"/>
            <path id="timerreflection1" serif:id="timerreflection" d="M100.454,203.825C101.668,201.754 102.516,199.571 103.079,197.31C103.644,195.038 103.918,192.691 103.977,190.301C104.089,185.351 102.912,180.658 100.747,176.504C98.529,172.251 95.267,168.576 91.299,165.751C91.299,165.751 91.181,165.652 91.181,165.652C91.127,165.602 91.067,165.559 91.004,165.523C90.621,165.297 89.072,164.389 87.593,163.583C86.667,163.078 85.767,162.616 85.18,162.369L84.783,162.112C83.238,161.215 82.171,160.035 81.435,158.68C80.653,157.241 80.25,155.603 80.045,153.885C79.894,152.667 80.353,151.144 81.139,149.797C81.88,148.524 82.928,147.391 84.179,146.884C87.073,145.676 89.786,144.137 92.209,142.278C94.692,140.372 96.879,138.15 98.675,135.668C102.231,130.753 104.269,124.845 104.096,118.397C104.02,115.996 103.69,113.61 103.058,111.302C102.431,109.015 101.514,106.813 100.28,104.753C101.356,106.875 102.105,109.116 102.573,111.418C103.037,113.708 103.218,116.052 103.142,118.397C102.972,124.518 100.727,129.996 97.135,134.498C95.347,136.739 93.22,138.728 90.842,140.44C88.527,142.108 85.976,143.513 83.247,144.584C81.518,145.283 80.003,146.785 78.986,148.548C77.916,150.404 77.406,152.529 77.632,154.199C77.917,156.219 78.454,158.134 79.415,159.809C80.378,161.485 81.751,162.932 83.716,164.006L84.378,164.369C84.925,164.578 85.765,164.98 86.63,165.417C88.062,166.139 89.561,166.953 90.002,167.194C90.006,167.196 90.208,167.352 90.208,167.352C94.069,169.87 97.281,173.23 99.552,177.16C101.811,181.069 103.149,185.531 103.261,190.301C103.322,192.652 103.17,194.972 102.729,197.232C102.286,199.503 101.553,201.71 100.454,203.825Z" style="fill:#808080;fill-opacity:0.35;"/>
            <path id="sandtop" d="M92.814,111.286C94.995,114.593 96.143,118.343 96.143,122.161C96.143,134.165 85.006,143.911 71.289,143.911C57.571,143.911 46.434,134.165 46.434,122.161C46.434,118.343 47.582,114.593 49.764,111.286C63.482,114.353 77.832,114.353 92.814,111.286Z" style="fill:#ddcf90;"/>
            <path id="sandbottom" d="M95.371,204.572C95.371,204.572 99.139,195.725 99.139,190.939C99.139,175.89 86.536,163.671 71.012,163.671C55.488,163.671 42.884,175.89 42.884,190.939C42.884,195.725 46.652,204.572 46.652,204.572L95.371,204.572Z" style="fill:#ddcf90;"/>
        </g>
        <g id="technique">
            <rect id="techrect" x="182.598" y="0.483" width="172.594" height="102.667" style="fill:#fdf4cb;fill-opacity:0.74;stroke:#000;stroke-width:0.96px;"/>
            <rect x="182.593" y="84.383" width="172.35" height="18.283" style="fill:#ddcf90;stroke:#000102;stroke-width:0.91px;"/>
            <rect x="331.822" y="0.965" width="23.274" height="83.496" style="fill:#a8bbb8;stroke:#272000;stroke-width:0.9px;"/>
            <path d="M343.858,12.616C342.473,12.616 341.349,13.74 341.349,15.126L341.349,78.973C341.349,80.358 342.473,81.483 343.858,81.483C345.243,81.483 346.368,80.358 346.368,78.973L346.368,15.126C346.368,13.74 345.243,12.616 343.858,12.616Z" style="fill:#858f8d;fill-opacity:0.55;"/>
            <path d="M341.631,94.067C341.631,92.682 340.507,91.557 339.122,91.557L189.459,91.557C188.074,91.557 186.949,92.682 186.949,94.067C186.949,95.452 188.074,96.577 189.459,96.577L339.122,96.577C340.507,96.577 341.631,95.452 341.631,94.067Z" style="fill:#bfab50;fill-opacity:0.57;"/>
            <path d="M189.98,93.946L338.045,93.946" style="fill:none;stroke:#000;stroke-width:0.95px;"/>
            <path d="M344.151,78.896L344.151,14.608" style="fill:none;stroke:#000;stroke-width:1.51px;"/>
            <g id="dishmatic">
                <path id="spongetop" d="M302.811,79.838L230.854,79.838L230.854,66.77C230.854,64.365 232.806,62.414 235.21,62.414L299.339,62.414C301.256,62.414 302.811,63.969 302.811,65.886L302.811,79.838Z" style="fill:#f1ede0;fill-opacity:0.84;stroke:#000;stroke-width:1.03px;"/>
                <path id="spongebottom" d="M230.854,79.838L302.811,79.838L302.811,80.886C302.811,83.519 300.674,85.656 298.041,85.656L235.615,85.656C232.987,85.656 230.854,83.523 230.854,80.896L230.854,79.838Z" style="fill:#e75368;stroke:#000;stroke-width:0.93px;"/>
                <path id="handlebottom" d="M298.269,61.064C298.269,59.781 297.227,58.739 295.944,58.739L239.494,58.739C238.157,58.739 237.071,59.825 237.071,61.163L237.071,62.451L298.269,62.451L298.269,61.064Z" style="fill:#f1ede0;stroke:#000;stroke-width:1.01px;"/>
                <path id="handle" d="M354.496,0.514L354.496,5.838C343.936,9.43 309.655,27.714 299.032,46.022C296.864,49.759 297.194,59.133 297.194,59.133L238.268,59.35C240.718,46.628 267.419,38.847 286.622,26.745C298.325,19.37 309.604,9.643 321.217,0.514L354.496,0.514Z" style="fill:#ddcf90;stroke:#000;stroke-width:1.03px;"/>
            </g>
            <g id="yaccsponge">
                <path id="yaccspongetop" d="M205.654,96.097L190.028,96.097L190.028,91.303C190.028,90.421 190.744,89.705 191.626,89.705L204.38,89.705C205.083,89.705 205.654,90.275 205.654,90.978L205.654,96.097Z" style="fill:#f1ede0;fill-opacity:0.84;stroke:#000;stroke-width:0.85px;"/>
                <path id="yaccspongebottom" d="M190.028,96.097L205.654,96.097L205.654,96.505C205.654,97.531 204.822,98.363 203.796,98.363L191.883,98.363C190.859,98.363 190.028,97.532 190.028,96.509L190.028,96.097Z" style="fill:#e75368;fill-opacity:0.84;stroke:#000;stroke-width:0.89px;"/>
            </g>
            <g id="xaccsponge">
                <path id="xaccspongebottom" d="M339.872,67.884C337.857,67.884 336.222,69.52 336.222,71.535L336.222,75.588C336.222,77.603 337.857,79.239 339.872,79.239C339.872,79.239 348.391,79.239 348.391,79.239C350.406,79.239 352.042,77.603 352.042,75.588C352.042,75.588 352.042,71.535 352.042,71.535C352.042,69.52 350.406,67.884 348.391,67.884C348.391,67.884 339.872,67.884 339.872,67.884Z" style="fill:#e56a7b;stroke:#000;stroke-width:0.75px;"/>
                <path id="xaccspongetop" d="M339.872,69.509C338.754,69.509 337.846,70.417 337.846,71.535L337.846,75.588C337.846,76.707 338.754,77.615 339.872,77.615L348.391,77.615C349.51,77.615 350.418,76.707 350.418,75.588L350.418,71.535C350.418,70.417 349.51,69.509 348.391,69.509L339.872,69.509Z" style="fill:#f3eede;stroke:#000;stroke-width:0.75px;"/>
            </g>
            <g id="pressurelines">
                <path id="pressureline1" d="M228.77,79.263L220.245,71.536L223.859,68.889L228.77,79.263Z"/>
                <path id="pressureline4" d="M307.209,79.335L315.734,71.608L312.12,68.96L307.209,79.335Z"/>
                <path id="pressureline2" d="M228.319,72.356L224.335,64.108L227.769,63.224L228.319,72.356Z"/>
                <path id="pressureline3" d="M305.908,76.391L308.443,69.599L305.664,69.123L305.908,76.391Z"/>
                <path id="pressureline5" d="M310.081,80.345L314.22,76.286L315.458,78.131L310.081,80.345Z"/>
            </g>
        </g>
        <g>
            <rect id="noiserect" x="138.978" y="102.577" width="130.892" height="103.7" style="fill:#848786;fill-opacity:0.74;stroke:#000;stroke-width:0.84px;"/>
            <path id="bullhorn1" d="M195.156,133.437C192.065,134.672 188.222,136.437 186.878,137.057C186.728,137.126 186.955,137.504 186.906,137.617C186.856,137.729 186.647,137.844 186.58,137.731C186.436,137.487 186.135,136.905 185.823,136.275L185.823,136.276L185.798,136.224L185.799,136.223C185.513,135.58 185.259,134.975 185.162,134.707C185.117,134.583 185.334,134.484 185.45,134.513C185.566,134.542 185.712,134.96 185.858,134.881C187.734,133.854 194.627,130.066 196.705,128.355C197.7,127.535 197.95,125.278 198.325,124.612C198.443,124.403 198.833,124.129 198.959,124.356C199.348,125.06 200.197,126.802 201.048,128.609L201.047,128.61C201.884,130.401 202.67,132.142 202.961,132.887C203.055,133.13 202.607,133.278 202.375,133.245C201.637,133.14 199.77,131.949 198.533,132.253C198.072,132.366 197.467,132.563 196.771,132.816C197.27,133.276 197.696,133.849 198.011,134.52C199.202,137.059 198.346,140.038 196.101,141.168C193.857,142.298 191.067,141.155 189.876,138.616C189.51,137.835 189.424,137.307 189.426,136.51L190.736,135.843C190.631,136.545 190.727,137.299 191.057,138.002C191.875,139.745 193.818,140.516 195.394,139.722C196.971,138.928 197.586,136.869 196.769,135.126C196.408,134.356 195.827,133.776 195.156,133.437Z" style="fill:#e77553;stroke:#000;stroke-width:0.68px;"/>
            <path id="bullhorn2" d="M250.784,118.401C247.779,116.957 243.884,115.319 242.52,114.749C242.367,114.685 242.263,115.117 242.15,115.158C242.038,115.199 241.813,115.123 241.845,114.995C241.915,114.718 242.109,114.089 242.33,113.419L242.329,113.419L242.348,113.365L242.349,113.365C242.597,112.706 242.84,112.095 242.959,111.837C243.014,111.718 243.233,111.81 243.294,111.917C243.354,112.023 243.166,112.423 243.322,112.476C245.338,113.161 252.757,115.666 255.388,116.025C256.649,116.197 258.389,114.815 259.113,114.632C259.34,114.575 259.801,114.675 259.73,114.926C259.512,115.706 258.892,117.549 258.229,119.438L258.229,119.438C257.566,121.306 256.903,123.101 256.588,123.835C256.485,124.074 256.071,123.844 255.933,123.648C255.494,123.025 255.023,120.806 253.952,120.095C253.554,119.831 252.996,119.517 252.337,119.174C252.364,119.865 252.262,120.581 252.015,121.282C251.08,123.933 248.418,125.365 246.074,124.477C243.729,123.59 242.585,120.717 243.52,118.066C243.808,117.25 244.115,116.819 244.67,116.267L246.043,116.78C245.482,117.189 245.026,117.785 244.767,118.519C244.125,120.339 244.94,122.323 246.586,122.946C248.232,123.569 250.09,122.597 250.732,120.777C251.016,119.973 251.015,119.137 250.784,118.401Z" style="fill:#e77553;stroke:#000;stroke-width:0.7px;"/>
            <path id="bullhorn3" d="M243.377,166.5C240.372,165.056 236.477,163.419 235.113,162.848C234.96,162.784 234.856,163.216 234.743,163.257C234.631,163.298 234.406,163.222 234.438,163.094C234.508,162.817 234.702,162.188 234.923,161.519L234.922,161.519L234.941,161.464L234.942,161.464C235.19,160.805 235.433,160.195 235.552,159.936C235.607,159.817 235.827,159.91 235.887,160.016C235.947,160.123 235.759,160.522 235.915,160.575C237.931,161.26 245.35,163.765 247.981,164.124C249.242,164.296 250.982,162.914 251.706,162.731C251.933,162.674 252.394,162.774 252.323,163.026C252.105,163.805 251.485,165.648 250.822,167.538L250.822,167.537C250.159,169.405 249.496,171.2 249.181,171.935C249.078,172.174 248.664,171.943 248.526,171.747C248.087,171.124 247.616,168.905 246.545,168.195C246.147,167.93 245.589,167.616 244.93,167.274C244.957,167.964 244.855,168.68 244.608,169.381C243.673,172.032 241.011,173.464 238.667,172.577C236.322,171.689 235.178,168.816 236.113,166.165C236.401,165.35 236.708,164.919 237.263,164.366L238.636,164.879C238.075,165.288 237.619,165.884 237.36,166.618C236.718,168.438 237.533,170.422 239.179,171.045C240.825,171.668 242.683,170.696 243.325,168.876C243.609,168.072 243.608,167.237 243.377,166.5Z" style="fill:#e77553;stroke:#000;stroke-width:0.7px;"/>
            <path id="bullhorn4" d="M225.763,188.888C222.905,190.623 219.387,193.007 218.157,193.843C218.02,193.937 218.303,194.272 218.271,194.391C218.24,194.51 218.051,194.659 217.968,194.558C217.788,194.341 217.4,193.818 216.995,193.248L216.994,193.248L216.961,193.201L216.963,193.2C216.58,192.614 216.235,192.059 216.098,191.811C216.034,191.696 216.233,191.562 216.352,191.571C216.471,191.58 216.68,191.969 216.811,191.866C218.503,190.54 224.717,185.65 226.501,183.614C227.355,182.638 227.251,180.369 227.518,179.649C227.602,179.423 227.944,179.088 228.103,179.291C228.597,179.921 229.706,181.498 230.827,183.139L230.826,183.14C231.931,184.768 232.977,186.355 233.38,187.042C233.511,187.265 233.092,187.487 232.858,187.493C232.114,187.512 230.085,186.648 228.912,187.155C228.475,187.344 227.908,187.64 227.261,188.006C227.824,188.376 228.334,188.871 228.749,189.48C230.32,191.787 229.939,194.869 227.899,196.36C225.86,197.85 222.929,197.188 221.359,194.881C220.876,194.172 220.708,193.665 220.586,192.878L221.775,192.001C221.781,192.711 221.994,193.439 222.428,194.078C223.507,195.661 225.545,196.098 226.977,195.051C228.409,194.004 228.696,191.869 227.618,190.285C227.142,189.586 226.478,189.11 225.763,188.888Z" style="fill:#e77553;stroke:#000;stroke-width:0.68px;"/>
            <path id="bullhorn5" d="M213.877,153.249C211.592,155.733 208.845,159.03 207.885,160.185C207.778,160.314 208.139,160.555 208.141,160.679C208.142,160.802 208,160.999 207.894,160.926C207.663,160.769 207.15,160.377 206.609,159.945L206.609,159.945L206.565,159.909L206.566,159.908C206.042,159.453 205.563,159.019 205.364,158.819C205.273,158.727 205.428,158.541 205.545,158.516C205.662,158.491 205.967,158.805 206.065,158.668C207.338,156.91 212.01,150.435 213.183,147.968C213.745,146.787 213.041,144.635 213.106,143.867C213.126,143.625 213.366,143.206 213.573,143.355C214.216,143.82 215.701,145.02 217.215,146.277L217.215,146.277C218.71,147.527 220.138,148.754 220.708,149.299C220.894,149.476 220.55,149.809 220.327,149.882C219.616,150.112 217.436,149.862 216.443,150.684C216.073,150.99 215.607,151.437 215.083,151.973C215.723,152.168 216.345,152.498 216.906,152.966C219.029,154.734 219.483,157.806 217.919,159.821C216.356,161.837 213.362,162.037 211.239,160.268C210.586,159.724 210.29,159.285 209.963,158.563L210.873,157.381C211.067,158.062 211.465,158.701 212.053,159.19C213.511,160.405 215.586,160.242 216.684,158.827C217.782,157.412 217.49,155.277 216.032,154.063C215.388,153.526 214.624,153.259 213.877,153.249Z" style="fill:#e77553;stroke:#000;stroke-width:0.68px;"/>
            <path id="bigbull" d="M139.102,165.062C144.458,161.777 149,158.814 151.966,156.549C158.005,151.939 160.313,140.273 162.731,136.703C163.489,135.584 165.836,134.022 166.471,135.132C168.441,138.578 172.648,147.151 176.844,156.054L176.841,156.056C180.962,164.885 184.807,173.478 186.192,177.175C186.643,178.378 184.007,179.326 182.689,179.252C178.486,179.016 168.206,173.688 160.975,175.759C158.282,176.53 154.723,177.792 150.627,179.376C153.315,181.524 155.546,184.285 157.097,187.591C159.81,193.374 159.972,199.821 158.043,205.746L149.459,205.746C151.634,201.124 151.896,195.843 149.721,191.207C147.941,187.414 144.827,184.683 141.096,183.222C140.437,183.496 139.773,183.775 139.102,184.058L139.102,165.062Z" style="fill:#bab9b5;stroke:#000;stroke-width:0.99px;"/>
            <path id="bigbull1" serif:id="bigbull" d="M166.261,135.467C166.358,135.423 183.662,173.604 185.096,177.382C184.988,177.47 184.783,177.627 184.619,177.708C184.024,178.001 183.261,178.185 182.75,178.156C180.697,178.041 177.166,176.659 173.259,175.582C169.063,174.425 164.466,173.618 160.673,174.704C157.955,175.482 154.364,176.754 150.231,178.352C149.865,178.494 149.602,178.821 149.542,179.209C149.483,179.597 149.635,179.988 149.942,180.233C152.502,182.279 154.626,184.908 156.103,188.057C158.581,193.338 158.849,199.477 157.258,204.927C157.257,204.927 150.554,204.955 150.554,204.955C152.237,200.433 152.345,195.158 150.273,190.74C148.371,186.685 144.934,184.164 140.945,182.602" style="fill:#bab9b5;"/>
            <path d="M183.987,177C183.825,177.063 183.654,177.116 183.486,177.157C183.237,177.217 182.994,177.251 182.802,177.239C182.082,177.192 181.17,176.965 180.116,176.66C178.242,176.117 175.955,175.315 173.522,174.627C171.002,173.931 168.341,173.356 165.786,173.228C163.905,173.134 162.081,173.282 160.406,173.77C159.159,174.137 157.73,174.606 156.152,175.166C154.269,175.835 152.172,176.634 149.914,177.531C149.585,177.661 149.301,177.871 149.09,178.139C148.879,178.407 148.733,178.728 148.682,179.077C148.632,179.425 148.673,179.773 148.799,180.089C148.925,180.404 149.129,180.688 149.405,180.905C150.665,181.89 151.82,183.019 152.841,184.288C153.836,185.523 154.707,186.886 155.427,188.374C156.654,190.907 157.352,193.652 157.565,196.425C157.771,199.117 157.525,201.834 156.854,204.411L156.585,204.415C155.276,204.44 152.399,204.495 151.15,204.519C151.842,202.37 152.191,200.082 152.137,197.809C152.078,195.335 151.544,192.881 150.458,190.654C149.47,188.631 148.108,186.997 146.487,185.68C144.858,184.358 142.97,183.357 140.945,182.602C142.933,183.418 144.777,184.474 146.352,185.84C147.898,187.179 149.183,188.818 150.088,190.827C151.076,193.019 151.522,195.414 151.507,197.815C151.492,200.205 151.015,202.601 150.156,204.807C150.107,204.938 150.125,205.084 150.205,205.199C150.285,205.313 150.416,205.381 150.556,205.38C150.556,205.38 154.891,205.428 156.589,205.445C156.878,205.448 157.091,205.449 157.193,205.45C157.602,205.454 157.737,205.138 157.737,205.138C157.746,205.117 157.754,205.096 157.76,205.074C158.617,202.282 158.993,199.305 158.842,196.343C158.693,193.393 158.016,190.462 156.78,187.74C156.045,186.125 155.145,184.64 154.108,183.291C153.036,181.898 151.816,180.653 150.479,179.561C150.446,179.535 150.425,179.498 150.41,179.46C150.396,179.423 150.396,179.382 150.402,179.341C150.409,179.301 150.429,179.267 150.454,179.236C150.478,179.207 150.512,179.187 150.549,179.173C152.801,178.326 154.892,177.575 156.767,176.943C158.317,176.42 159.718,175.978 160.941,175.638C162.419,175.221 164.027,175.123 165.683,175.212C168.098,175.343 170.613,175.881 172.996,176.537C175.433,177.192 177.725,177.969 179.604,178.481C180.818,178.812 181.872,179.034 182.699,179.073C183.046,179.089 183.485,179.038 183.932,178.92C184.304,178.823 184.683,178.684 185.017,178.516L185.66,178.077C185.96,177.834 186.071,177.425 185.933,177.064C185.325,175.53 182.026,168.303 178.252,160.306C172.77,148.689 166.318,135.44 166.261,135.467C166.316,135.444 171.546,147.746 176.395,159.125C177.937,162.743 179.446,166.261 180.728,169.266C182.228,172.784 183.42,175.588 183.987,177Z" style="fill:#808080;"/>
        </g>
        <g id="temperature">
            <rect id="temprect" x="269.71" y="102.577" width="85.422" height="103.7" style="fill:#ea6e3b;fill-opacity:0.74;stroke:#000;stroke-width:0.73px;"/>
            <path id="thermometerback" d="M325.38,118.478C325.38,112.103 320.204,106.926 313.828,106.926C307.452,106.926 302.276,112.103 302.276,118.478L302.276,182.13C302.276,188.505 307.452,193.682 313.828,193.682C320.204,193.682 325.38,188.505 325.38,182.13L325.38,118.478Z" style="fill:#fef7d9;stroke:#000;stroke-width:1.02px;"/>
            <path id="thermometerback1" serif:id="thermometerback" d="M310.787,192.455C306.53,191.802 303.34,187.1 303.34,182.591C303.34,182.591 303.444,117.877 303.444,117.877C303.444,113.368 306.608,108.771 310.864,108.118" style="fill:#fef7d9;"/>
            <path d="M310.787,192.455C308.665,192.019 306.877,190.564 305.652,188.651C304.513,186.872 303.876,184.698 303.969,182.591C303.969,182.592 304.138,178.731 304.286,172.886C304.323,171.387 304.351,169.759 304.372,168.032C304.391,166.486 304.399,164.86 304.404,163.179C304.415,159.584 304.408,155.734 304.395,151.854C304.382,148.037 304.358,144.192 304.328,140.528C304.267,133.178 304.203,126.565 304.138,122.408C304.094,119.569 304.044,117.878 304.044,117.878C304.044,117.878 304.044,117.877 304.044,117.877C303.959,115.767 304.602,113.617 305.741,111.864C306.964,109.981 308.743,108.553 310.864,108.118C308.63,108.348 306.642,109.647 305.202,111.478C303.791,113.272 302.938,115.574 302.845,117.877C302.845,117.876 302.789,119.567 302.736,122.406C302.657,126.562 302.572,133.175 302.488,140.525C302.446,144.189 302.409,148.034 302.384,151.85C302.358,155.731 302.339,159.581 302.338,163.175C302.338,164.857 302.341,166.482 302.355,168.029C302.37,169.756 302.392,171.384 302.425,172.883C302.554,178.729 302.711,182.59 302.711,182.59C302.711,182.591 302.711,182.591 302.711,182.591C302.812,184.896 303.681,187.22 305.104,189.04C306.555,190.897 308.551,192.226 310.787,192.455Z" style="fill:#d2c6a4;"/>
            <path id="thermometerinner" d="M317.83,116.285L317.83,183.334C317.83,185.321 316.037,186.935 313.828,186.935C311.619,186.935 309.826,185.321 309.826,183.334C309.826,183.334 309.826,116.285 309.826,116.285C309.826,114.298 311.619,112.684 313.828,112.684C316.037,112.684 317.83,114.298 317.83,116.285Z" style="stroke:#000;stroke-width:1.02px;"/>
            <path id="thermometerreading" d="M317.83,141.388L317.83,184.614C317.83,185.895 316.037,186.935 313.828,186.935C311.619,186.935 309.826,185.895 309.826,184.614C309.826,184.614 309.826,141.388 309.826,141.388C309.826,140.107 311.619,139.067 313.828,139.067C316.037,139.067 317.83,140.107 317.83,141.388Z" style="fill:#e77553;stroke:#000;stroke-width:0.91px;"/>
        </g>
        <path d="M186.646,6.012L186.646,5.417L187.091,5.417L187.091,4.527L187.917,4.527L187.917,5.417L188.436,5.417L188.436,6.012L187.917,6.012L187.917,7.699C187.917,7.83 187.934,7.912 187.967,7.944C188,7.976 188.102,7.992 188.271,7.992C188.297,7.992 188.324,7.992 188.352,7.991C188.38,7.99 188.408,7.989 188.436,7.987L188.436,8.611L188.04,8.625C187.646,8.639 187.376,8.571 187.231,8.42C187.138,8.324 187.091,8.177 187.091,7.978L187.091,6.012L186.646,6.012Z" style="fill-rule:nonzero;"/>
        <path d="M190.231,5.991C190.038,5.991 189.888,6.052 189.782,6.173C189.675,6.294 189.608,6.458 189.581,6.665L190.879,6.665C190.865,6.445 190.798,6.277 190.678,6.163C190.558,6.049 190.409,5.991 190.231,5.991ZM190.231,5.303C190.497,5.303 190.736,5.353 190.949,5.452C191.162,5.552 191.338,5.709 191.477,5.924C191.602,6.114 191.683,6.333 191.72,6.583C191.741,6.73 191.75,6.941 191.746,7.216L189.561,7.216C189.572,7.536 189.673,7.761 189.862,7.89C189.978,7.97 190.116,8.01 190.278,8.01C190.45,8.01 190.59,7.961 190.697,7.864C190.756,7.811 190.808,7.738 190.853,7.644L191.705,7.644C191.684,7.833 191.585,8.026 191.409,8.221C191.136,8.531 190.753,8.687 190.261,8.687C189.854,8.687 189.496,8.556 189.186,8.294C188.875,8.032 188.72,7.607 188.72,7.017C188.72,6.464 188.86,6.04 189.14,5.745C189.42,5.45 189.784,5.303 190.231,5.303Z" style="fill-rule:nonzero;"/>
        <path d="M194.216,6.533C194.2,6.414 194.16,6.307 194.096,6.211C194.002,6.082 193.856,6.018 193.659,6.018C193.378,6.018 193.186,6.157 193.082,6.437C193.027,6.585 193,6.782 193,7.029C193,7.263 193.027,7.451 193.082,7.594C193.182,7.86 193.369,7.992 193.645,7.992C193.84,7.992 193.979,7.94 194.061,7.834C194.143,7.729 194.192,7.592 194.21,7.424L195.063,7.424C195.043,7.678 194.951,7.918 194.787,8.145C194.525,8.51 194.138,8.693 193.624,8.693C193.11,8.693 192.732,8.54 192.49,8.236C192.248,7.931 192.127,7.535 192.127,7.049C192.127,6.5 192.261,6.073 192.528,5.769C192.796,5.464 193.165,5.312 193.636,5.312C194.036,5.312 194.364,5.402 194.619,5.581C194.874,5.761 195.024,6.078 195.071,6.533L194.216,6.533Z" style="fill-rule:nonzero;"/>
        <path d="M197.406,5.306C197.604,5.306 197.783,5.34 197.944,5.408C198.105,5.477 198.237,5.581 198.341,5.722C198.429,5.841 198.482,5.964 198.502,6.09C198.521,6.216 198.531,6.421 198.531,6.706L198.531,8.581L197.679,8.581L197.679,6.639C197.679,6.467 197.649,6.328 197.591,6.223C197.515,6.074 197.37,6 197.157,6C196.937,6 196.769,6.074 196.655,6.221C196.541,6.369 196.483,6.579 196.483,6.853L196.483,8.581L195.651,8.581L195.651,4.278L196.483,4.278L196.483,5.804C196.604,5.618 196.745,5.489 196.904,5.416C197.063,5.343 197.23,5.306 197.406,5.306Z" style="fill-rule:nonzero;"/>
        <path d="M201.08,5.312C201.41,5.312 201.68,5.398 201.89,5.571C202.1,5.744 202.205,6.03 202.205,6.431L202.205,8.581L201.35,8.581L201.35,6.639C201.35,6.471 201.327,6.342 201.282,6.252C201.2,6.088 201.044,6.006 200.813,6.006C200.53,6.006 200.336,6.126 200.23,6.366C200.176,6.493 200.148,6.655 200.148,6.853L200.148,8.581L199.316,8.581L199.316,5.394L200.122,5.394L200.122,5.86C200.229,5.696 200.331,5.577 200.427,5.505C200.599,5.376 200.816,5.312 201.08,5.312Z" style="fill-rule:nonzero;"/>
        <path d="M203.834,5.007L202.987,5.007L202.987,4.237L203.834,4.237L203.834,5.007ZM202.987,5.388L203.834,5.388L203.834,8.581L202.987,8.581L202.987,5.388Z" style="fill-rule:nonzero;"/>
        <path d="M205.996,7.966C206.283,7.966 206.487,7.843 206.608,7.597C206.687,7.435 206.726,7.23 206.726,6.982C206.726,6.786 206.692,6.612 206.626,6.457C206.507,6.18 206.298,6.041 205.999,6.041C205.788,6.041 205.619,6.122 205.491,6.284C205.363,6.447 205.299,6.693 205.299,7.023C205.299,7.243 205.328,7.424 205.387,7.565C205.496,7.832 205.699,7.966 205.996,7.966ZM205.785,5.306C206.051,5.306 206.266,5.371 206.43,5.502C206.525,5.576 206.623,5.698 206.723,5.868L206.723,5.394L207.528,5.394L207.528,9.847L206.702,9.847L206.702,8.186C206.64,8.315 206.533,8.429 206.381,8.53C206.23,8.631 206.023,8.681 205.762,8.681C205.393,8.681 205.078,8.533 204.818,8.239C204.559,7.944 204.429,7.55 204.429,7.058C204.429,6.527 204.559,6.102 204.82,5.783C205.081,5.465 205.402,5.306 205.785,5.306Z" style="fill-rule:nonzero;"/>
        <path d="M209.14,5.388L209.14,7.313C209.14,7.494 209.161,7.631 209.204,7.723C209.28,7.885 209.43,7.966 209.652,7.966C209.938,7.966 210.133,7.851 210.238,7.62C210.293,7.495 210.32,7.33 210.32,7.125L210.32,5.388L211.167,5.388L211.167,8.581L210.355,8.581L210.355,8.13C210.348,8.14 210.328,8.169 210.297,8.218C210.266,8.267 210.229,8.31 210.186,8.347C210.055,8.464 209.928,8.544 209.806,8.587C209.684,8.63 209.541,8.652 209.377,8.652C208.904,8.652 208.586,8.482 208.422,8.142C208.33,7.954 208.284,7.678 208.284,7.313L208.284,5.388L209.14,5.388Z" style="fill-rule:nonzero;"/>
        <path d="M213.232,5.991C213.039,5.991 212.889,6.052 212.783,6.173C212.676,6.294 212.609,6.458 212.582,6.665L213.88,6.665C213.866,6.445 213.799,6.277 213.679,6.163C213.559,6.049 213.41,5.991 213.232,5.991ZM213.232,5.303C213.498,5.303 213.737,5.353 213.95,5.452C214.163,5.552 214.339,5.709 214.478,5.924C214.603,6.114 214.684,6.333 214.721,6.583C214.742,6.73 214.751,6.941 214.747,7.216L212.562,7.216C212.573,7.536 212.674,7.761 212.863,7.89C212.979,7.97 213.117,8.01 213.279,8.01C213.451,8.01 213.591,7.961 213.698,7.864C213.757,7.811 213.809,7.738 213.854,7.644L214.706,7.644C214.685,7.833 214.586,8.026 214.41,8.221C214.137,8.531 213.754,8.687 213.262,8.687C212.855,8.687 212.497,8.556 212.187,8.294C211.876,8.032 211.721,7.607 211.721,7.017C211.721,6.464 211.861,6.04 212.141,5.745C212.421,5.45 212.785,5.303 213.232,5.303Z" style="fill-rule:nonzero;"/>
        <path d="M245.064,198.721C245.394,198.721 245.664,198.808 245.874,198.981C246.084,199.153 246.189,199.44 246.189,199.84L246.189,201.991L245.334,201.991L245.334,200.048C245.334,199.88 245.311,199.752 245.266,199.662C245.184,199.498 245.028,199.416 244.798,199.416C244.514,199.416 244.32,199.536 244.215,199.776C244.16,199.903 244.132,200.065 244.132,200.262L244.132,201.991L243.3,201.991L243.3,198.803L244.106,198.803L244.106,199.269C244.214,199.105 244.315,198.987 244.411,198.915C244.583,198.786 244.8,198.721 245.064,198.721Z" style="fill-rule:nonzero;"/>
        <path d="M248.392,201.402C248.636,201.402 248.824,201.315 248.955,201.141C249.086,200.967 249.151,200.72 249.151,200.4C249.151,200.08 249.086,199.833 248.955,199.66C248.824,199.487 248.636,199.401 248.392,199.401C248.148,199.401 247.96,199.487 247.828,199.66C247.696,199.833 247.631,200.08 247.631,200.4C247.631,200.72 247.696,200.967 247.828,201.141C247.96,201.315 248.148,201.402 248.392,201.402ZM250.027,200.4C250.027,200.869 249.892,201.27 249.623,201.603C249.353,201.936 248.944,202.102 248.395,202.102C247.846,202.102 247.437,201.936 247.168,201.603C246.898,201.27 246.763,200.869 246.763,200.4C246.763,199.939 246.898,199.54 247.168,199.202C247.437,198.864 247.846,198.695 248.395,198.695C248.944,198.695 249.353,198.864 249.623,199.202C249.892,199.54 250.027,199.939 250.027,200.4Z" style="fill-rule:nonzero;"/>
        <path d="M251.483,198.417L250.636,198.417L250.636,197.646L251.483,197.646L251.483,198.417ZM250.636,198.797L251.483,198.797L251.483,201.991L250.636,201.991L250.636,198.797Z" style="fill-rule:nonzero;"/>
        <path d="M252.942,200.971C252.96,201.12 252.998,201.225 253.056,201.288C253.16,201.399 253.351,201.455 253.631,201.455C253.795,201.455 253.925,201.43 254.022,201.381C254.118,201.333 254.167,201.259 254.167,201.162C254.167,201.068 254.128,200.997 254.049,200.948C253.971,200.899 253.681,200.815 253.179,200.696C252.818,200.606 252.563,200.494 252.415,200.359C252.266,200.226 252.192,200.035 252.192,199.785C252.192,199.49 252.308,199.236 252.539,199.024C252.771,198.813 253.096,198.707 253.516,198.707C253.915,198.707 254.239,198.786 254.49,198.945C254.741,199.105 254.885,199.379 254.923,199.77L254.088,199.77C254.076,199.663 254.046,199.578 253.997,199.515C253.905,199.402 253.749,199.345 253.528,199.345C253.346,199.345 253.217,199.374 253.14,199.43C253.063,199.487 253.024,199.553 253.024,199.629C253.024,199.725 253.065,199.794 253.147,199.837C253.229,199.882 253.519,199.96 254.017,200.069C254.349,200.147 254.598,200.265 254.764,200.423C254.928,200.584 255.01,200.784 255.01,201.024C255.01,201.34 254.893,201.599 254.657,201.799C254.422,201.999 254.058,202.099 253.566,202.099C253.064,202.099 252.694,201.993 252.454,201.781C252.215,201.569 252.095,201.299 252.095,200.971L252.942,200.971Z" style="fill-rule:nonzero;"/>
        <path d="M256.888,199.401C256.695,199.401 256.545,199.461 256.439,199.583C256.332,199.704 256.265,199.868 256.238,200.075L257.536,200.075C257.522,199.854 257.455,199.687 257.335,199.572C257.215,199.458 257.066,199.401 256.888,199.401ZM256.888,198.712C257.154,198.712 257.393,198.762 257.606,198.862C257.819,198.961 257.995,199.119 258.133,199.334C258.258,199.523 258.34,199.743 258.377,199.993C258.398,200.139 258.407,200.35 258.403,200.626L256.217,200.626C256.229,200.946 256.33,201.17 256.519,201.299C256.634,201.379 256.773,201.419 256.935,201.419C257.107,201.419 257.247,201.371 257.354,201.273C257.413,201.22 257.465,201.147 257.509,201.053L258.362,201.053C258.34,201.243 258.242,201.435 258.066,201.63C257.793,201.941 257.41,202.096 256.918,202.096C256.511,202.096 256.153,201.965 255.842,201.704C255.532,201.442 255.377,201.016 255.377,200.426C255.377,199.874 255.517,199.45 255.797,199.155C256.077,198.86 256.441,198.712 256.888,198.712Z" style="fill-rule:nonzero;"/>
        <path d="M310.391,199.182L310.391,198.587L310.836,198.587L310.836,197.697L311.662,197.697L311.662,198.587L312.181,198.587L312.181,199.182L311.662,199.182L311.662,200.869C311.662,201 311.679,201.082 311.712,201.114C311.745,201.146 311.847,201.162 312.017,201.162C312.042,201.162 312.069,201.162 312.098,201.161C312.126,201.16 312.154,201.158 312.181,201.156L312.181,201.781L311.785,201.795C311.391,201.809 311.121,201.74 310.977,201.59C310.883,201.494 310.836,201.347 310.836,201.148L310.836,199.182L310.391,199.182Z" style="fill-rule:nonzero;"/>
        <path d="M313.977,199.161C313.784,199.161 313.634,199.222 313.527,199.343C313.421,199.464 313.354,199.628 313.327,199.835L314.624,199.835C314.611,199.614 314.544,199.447 314.424,199.333C314.304,199.218 314.155,199.161 313.977,199.161ZM313.977,198.473C314.243,198.473 314.482,198.523 314.695,198.622C314.908,198.722 315.083,198.879 315.222,199.094C315.347,199.283 315.428,199.503 315.465,199.753C315.487,199.9 315.495,200.111 315.492,200.386L313.306,200.386C313.318,200.706 313.418,200.931 313.608,201.06C313.723,201.14 313.862,201.18 314.024,201.18C314.196,201.18 314.335,201.131 314.443,201.033C314.501,200.981 314.553,200.907 314.598,200.814L315.451,200.814C315.429,201.003 315.33,201.196 315.155,201.391C314.881,201.701 314.498,201.857 314.006,201.857C313.6,201.857 313.242,201.726 312.931,201.464C312.62,201.202 312.465,200.777 312.465,200.187C312.465,199.634 312.605,199.21 312.886,198.915C313.166,198.62 313.53,198.473 313.977,198.473Z" style="fill-rule:nonzero;"/>
        <path d="M319.622,198.488C319.763,198.488 319.902,198.515 320.038,198.57C320.175,198.624 320.299,198.72 320.41,198.857C320.5,198.968 320.561,199.105 320.592,199.267C320.612,199.374 320.621,199.531 320.621,199.739L320.616,201.751L319.76,201.751L319.76,199.718C319.76,199.597 319.741,199.497 319.702,199.419C319.627,199.271 319.491,199.197 319.291,199.197C319.061,199.197 318.902,199.292 318.814,199.484C318.769,199.585 318.746,199.707 318.746,199.85L318.746,201.751L317.906,201.751L317.906,199.85C317.906,199.66 317.886,199.523 317.847,199.437C317.777,199.282 317.639,199.205 317.434,199.205C317.196,199.205 317.035,199.282 316.953,199.437C316.909,199.525 316.886,199.656 316.886,199.829L316.886,201.751L316.039,201.751L316.039,198.564L316.851,198.564L316.851,199.03C316.954,198.864 317.052,198.745 317.144,198.675C317.306,198.55 317.516,198.488 317.774,198.488C318.018,198.488 318.215,198.541 318.366,198.649C318.487,198.748 318.578,198.876 318.641,199.032C318.75,198.845 318.886,198.707 319.048,198.619C319.22,198.531 319.411,198.488 319.622,198.488Z" style="fill-rule:nonzero;"/>
        <path d="M323.589,200.155C323.589,199.908 323.533,199.691 323.421,199.501C323.308,199.312 323.126,199.217 322.874,199.217C322.572,199.217 322.364,199.361 322.25,199.648C322.192,199.8 322.162,199.993 322.162,200.228C322.162,200.599 322.261,200.86 322.458,201.01C322.576,201.098 322.714,201.142 322.874,201.142C323.107,201.142 323.284,201.052 323.406,200.872C323.528,200.693 323.589,200.453 323.589,200.155ZM323.115,198.488C323.488,198.488 323.804,198.625 324.062,198.901C324.321,199.176 324.451,199.58 324.451,200.114C324.451,200.676 324.324,201.105 324.071,201.4C323.818,201.695 323.493,201.842 323.094,201.842C322.84,201.842 322.629,201.779 322.461,201.652C322.369,201.581 322.28,201.479 322.192,201.344L322.192,203.008L321.366,203.008L321.366,198.558L322.165,198.558L322.165,199.03C322.255,198.891 322.351,198.781 322.452,198.701C322.638,198.559 322.859,198.488 323.115,198.488Z" style="fill-rule:nonzero;"/>
        <path d="M326.314,199.161C326.12,199.161 325.971,199.222 325.864,199.343C325.758,199.464 325.691,199.628 325.663,199.835L326.961,199.835C326.948,199.614 326.881,199.447 326.761,199.333C326.64,199.218 326.492,199.161 326.314,199.161ZM326.314,198.473C326.579,198.473 326.819,198.523 327.032,198.622C327.244,198.722 327.42,198.879 327.559,199.094C327.684,199.283 327.765,199.503 327.802,199.753C327.824,199.9 327.832,200.111 327.828,200.386L325.643,200.386C325.655,200.706 325.755,200.931 325.945,201.06C326.06,201.14 326.199,201.18 326.361,201.18C326.533,201.18 326.672,201.131 326.78,201.033C326.838,200.981 326.89,200.907 326.935,200.814L327.787,200.814C327.766,201.003 327.667,201.196 327.492,201.391C327.218,201.701 326.835,201.857 326.343,201.857C325.937,201.857 325.578,201.726 325.268,201.464C324.957,201.202 324.802,200.777 324.802,200.187C324.802,199.634 324.942,199.21 325.223,198.915C325.503,198.62 325.867,198.473 326.314,198.473Z" style="fill-rule:nonzero;"/>
        <path d="M330.125,198.482L330.237,198.488L330.237,199.343C330.184,199.337 330.137,199.333 330.096,199.331C330.055,199.329 330.022,199.328 329.996,199.328C329.66,199.328 329.435,199.438 329.32,199.656C329.255,199.78 329.223,199.969 329.223,200.225L329.223,201.751L328.382,201.751L328.382,198.558L329.179,198.558L329.179,199.114C329.308,198.902 329.42,198.756 329.516,198.678C329.672,198.547 329.875,198.482 330.125,198.482Z" style="fill-rule:nonzero;"/>
        <path d="M332.487,200.198C332.434,200.232 332.381,200.259 332.327,200.279C332.273,200.3 332.2,200.319 332.106,200.336L331.918,200.371C331.743,200.403 331.617,200.441 331.54,200.486C331.411,200.562 331.347,200.68 331.347,200.84C331.347,200.983 331.387,201.086 331.466,201.149C331.545,201.213 331.641,201.244 331.754,201.244C331.934,201.244 332.099,201.192 332.251,201.086C332.402,200.981 332.481,200.788 332.487,200.509L332.487,200.198ZM331.98,199.809C332.134,199.789 332.244,199.765 332.311,199.736C332.43,199.685 332.49,199.606 332.49,199.498C332.49,199.367 332.444,199.277 332.353,199.227C332.263,199.177 332.129,199.153 331.953,199.153C331.756,199.153 331.617,199.201 331.535,199.299C331.476,199.371 331.437,199.469 331.417,199.592L330.612,199.592C330.629,199.313 330.707,199.083 330.846,198.904C331.067,198.622 331.446,198.482 331.983,198.482C332.332,198.482 332.643,198.551 332.914,198.69C333.186,198.828 333.322,199.09 333.322,199.475L333.322,200.94C333.322,201.041 333.324,201.164 333.327,201.309C333.333,201.418 333.35,201.492 333.377,201.531C333.405,201.571 333.446,201.603 333.5,201.628L333.5,201.751L332.592,201.751C332.567,201.687 332.549,201.626 332.539,201.57C332.53,201.513 332.522,201.448 332.516,201.376C332.401,201.501 332.268,201.608 332.118,201.696C331.938,201.799 331.735,201.851 331.508,201.851C331.219,201.851 330.98,201.768 330.792,201.603C330.603,201.438 330.509,201.204 330.509,200.902C330.509,200.509 330.66,200.225 330.963,200.049C331.129,199.953 331.373,199.885 331.696,199.844L331.98,199.809Z" style="fill-rule:nonzero;"/>
        <path d="M333.735,199.182L333.735,198.587L334.18,198.587L334.18,197.697L335.006,197.697L335.006,198.587L335.525,198.587L335.525,199.182L335.006,199.182L335.006,200.869C335.006,201 335.023,201.082 335.056,201.114C335.089,201.146 335.191,201.162 335.361,201.162C335.386,201.162 335.413,201.162 335.441,201.161C335.47,201.16 335.497,201.158 335.525,201.156L335.525,201.781L335.129,201.795C334.735,201.809 334.465,201.74 334.321,201.59C334.227,201.494 334.18,201.347 334.18,201.148L334.18,199.182L333.735,199.182Z" style="fill-rule:nonzero;"/>
        <path d="M336.893,198.558L336.893,200.483C336.893,200.664 336.914,200.801 336.957,200.893C337.034,201.055 337.183,201.136 337.406,201.136C337.691,201.136 337.886,201.021 337.992,200.79C338.046,200.665 338.074,200.5 338.074,200.295L338.074,198.558L338.92,198.558L338.92,201.751L338.109,201.751L338.109,201.3C338.101,201.31 338.081,201.339 338.05,201.388C338.019,201.437 337.982,201.48 337.939,201.517C337.808,201.634 337.681,201.714 337.559,201.757C337.437,201.8 337.294,201.822 337.13,201.822C336.658,201.822 336.339,201.652 336.175,201.312C336.083,201.124 336.037,200.848 336.037,200.483L336.037,198.558L336.893,198.558Z" style="fill-rule:nonzero;"/>
        <path d="M341.46,198.482L341.572,198.488L341.572,199.343C341.519,199.337 341.472,199.333 341.431,199.331C341.39,199.329 341.357,199.328 341.331,199.328C340.995,199.328 340.77,199.438 340.655,199.656C340.59,199.78 340.558,199.969 340.558,200.225L340.558,201.751L339.717,201.751L339.717,198.558L340.514,198.558L340.514,199.114C340.643,198.902 340.755,198.756 340.851,198.678C341.007,198.547 341.21,198.482 341.46,198.482Z" style="fill-rule:nonzero;"/>
        <path d="M343.321,199.161C343.127,199.161 342.977,199.222 342.871,199.343C342.764,199.464 342.698,199.628 342.67,199.835L343.968,199.835C343.954,199.614 343.888,199.447 343.767,199.333C343.647,199.218 343.498,199.161 343.321,199.161ZM343.321,198.473C343.586,198.473 343.826,198.523 344.038,198.622C344.251,198.722 344.427,198.879 344.566,199.094C344.691,199.283 344.772,199.503 344.809,199.753C344.83,199.9 344.839,200.111 344.835,200.386L342.65,200.386C342.661,200.706 342.762,200.931 342.952,201.06C343.067,201.14 343.205,201.18 343.368,201.18C343.539,201.18 343.679,201.131 343.786,201.033C343.845,200.981 343.897,200.907 343.942,200.814L344.794,200.814C344.773,201.003 344.674,201.196 344.498,201.391C344.225,201.701 343.842,201.857 343.35,201.857C342.944,201.857 342.585,201.726 342.275,201.464C341.964,201.202 341.809,200.777 341.809,200.187C341.809,199.634 341.949,199.21 342.229,198.915C342.51,198.62 342.873,198.473 343.321,198.473Z" style="fill-rule:nonzero;"/>
        <path d="M101.207,5.305L102.053,5.305L102.54,7.604L103.038,5.305L103.908,5.305L102.982,8.498L102.124,8.498L101.623,6.172L101.116,8.498L100.249,8.498L99.352,5.305L100.249,5.305L100.747,7.596L101.207,5.305Z" style="fill-rule:nonzero;"/>
        <path d="M106.128,6.945C106.076,6.978 106.022,7.005 105.969,7.026C105.915,7.046 105.841,7.065 105.748,7.083L105.56,7.118C105.384,7.149 105.258,7.187 105.182,7.232C105.053,7.308 104.989,7.427 104.989,7.587C104.989,7.729 105.028,7.832 105.107,7.896C105.187,7.959 105.283,7.991 105.396,7.991C105.576,7.991 105.741,7.938 105.893,7.833C106.044,7.727 106.123,7.535 106.128,7.256L106.128,6.945ZM105.622,6.556C105.776,6.536 105.886,6.512 105.953,6.482C106.072,6.432 106.131,6.352 106.131,6.245C106.131,6.114 106.086,6.024 105.995,5.974C105.904,5.924 105.771,5.899 105.595,5.899C105.398,5.899 105.258,5.948 105.176,6.046C105.118,6.118 105.079,6.216 105.059,6.339L104.253,6.339C104.271,6.059 104.349,5.83 104.488,5.65C104.709,5.369 105.087,5.228 105.625,5.228C105.974,5.228 106.285,5.298 106.556,5.436C106.828,5.575 106.963,5.837 106.963,6.222L106.963,7.686C106.963,7.788 106.965,7.911 106.969,8.056C106.975,8.165 106.992,8.239 107.019,8.278C107.046,8.317 107.087,8.35 107.142,8.375L107.142,8.498L106.234,8.498C106.209,8.433 106.191,8.373 106.181,8.316C106.171,8.26 106.164,8.195 106.158,8.123C106.043,8.248 105.91,8.354 105.759,8.442C105.58,8.546 105.376,8.598 105.15,8.598C104.861,8.598 104.622,8.515 104.434,8.35C104.245,8.185 104.151,7.951 104.151,7.648C104.151,7.256 104.302,6.972 104.605,6.796C104.771,6.7 105.015,6.632 105.337,6.591L105.622,6.556Z" style="fill-rule:nonzero;"/>
        <path d="M108.355,7.478C108.373,7.627 108.411,7.732 108.469,7.795C108.573,7.906 108.764,7.962 109.043,7.962C109.208,7.962 109.338,7.937 109.435,7.889C109.531,7.84 109.58,7.766 109.58,7.669C109.58,7.575 109.541,7.504 109.462,7.455C109.384,7.406 109.094,7.322 108.592,7.203C108.231,7.113 107.976,7.001 107.828,6.866C107.679,6.733 107.605,6.542 107.605,6.292C107.605,5.997 107.721,5.744 107.952,5.532C108.184,5.32 108.509,5.214 108.929,5.214C109.328,5.214 109.652,5.293 109.903,5.453C110.154,5.612 110.298,5.887 110.335,6.277L109.501,6.277C109.489,6.17 109.459,6.085 109.41,6.022C109.318,5.909 109.162,5.852 108.941,5.852C108.759,5.852 108.63,5.881 108.553,5.937C108.476,5.994 108.437,6.06 108.437,6.137C108.437,6.232 108.478,6.302 108.56,6.345C108.642,6.39 108.932,6.467 109.43,6.576C109.762,6.654 110.011,6.772 110.177,6.931C110.341,7.091 110.423,7.291 110.423,7.531C110.423,7.848 110.306,8.106 110.07,8.306C109.835,8.506 109.471,8.606 108.979,8.606C108.477,8.606 108.106,8.5 107.867,8.288C107.628,8.077 107.508,7.807 107.508,7.478L108.355,7.478Z" style="fill-rule:nonzero;"/>
        <path d="M112.802,5.223C113,5.223 113.179,5.257 113.34,5.325C113.501,5.393 113.633,5.498 113.737,5.639C113.825,5.758 113.878,5.88 113.898,6.006C113.918,6.132 113.927,6.338 113.927,6.623L113.927,8.498L113.075,8.498L113.075,6.556C113.075,6.384 113.045,6.245 112.987,6.14C112.911,5.991 112.766,5.917 112.553,5.917C112.333,5.917 112.165,5.991 112.051,6.138C111.937,6.286 111.879,6.496 111.879,6.769L111.879,8.498L111.047,8.498L111.047,4.194L111.879,4.194L111.879,5.721C112.001,5.535 112.141,5.406 112.3,5.332C112.459,5.259 112.626,5.223 112.802,5.223Z" style="fill-rule:nonzero;"/>
        <path d="M115.565,4.924L114.718,4.924L114.718,4.153L115.565,4.153L115.565,4.924ZM114.718,5.305L115.565,5.305L115.565,8.498L114.718,8.498L114.718,5.305Z" style="fill-rule:nonzero;"/>
        <path d="M118.143,5.228C118.473,5.228 118.743,5.315 118.953,5.488C119.163,5.661 119.268,5.947 119.268,6.348L119.268,8.498L118.413,8.498L118.413,6.556C118.413,6.388 118.39,6.259 118.345,6.169C118.263,6.005 118.107,5.923 117.876,5.923C117.593,5.923 117.399,6.043 117.293,6.283C117.239,6.41 117.211,6.572 117.211,6.769L117.211,8.498L116.379,8.498L116.379,5.31L117.185,5.31L117.185,5.776C117.293,5.612 117.394,5.494 117.49,5.422C117.662,5.293 117.879,5.228 118.143,5.228Z" style="fill-rule:nonzero;"/>
        <path d="M121.41,7.812C121.605,7.812 121.77,7.739 121.905,7.591C122.04,7.444 122.107,7.209 122.107,6.887C122.107,6.584 122.043,6.353 121.915,6.195C121.787,6.037 121.616,5.958 121.401,5.958C121.108,5.958 120.906,6.096 120.794,6.371C120.736,6.517 120.707,6.698 120.707,6.913C120.707,7.099 120.738,7.264 120.8,7.408C120.914,7.678 121.117,7.812 121.41,7.812ZM121.202,5.228C121.362,5.228 121.501,5.253 121.621,5.302C121.824,5.386 121.988,5.54 122.113,5.765L122.113,5.305L122.924,5.305L122.924,8.334C122.924,8.746 122.855,9.057 122.716,9.266C122.478,9.625 122.021,9.805 121.345,9.805C120.937,9.805 120.604,9.725 120.346,9.564C120.088,9.404 119.946,9.165 119.918,8.847L120.827,8.847C120.85,8.944 120.888,9.015 120.941,9.058C121.031,9.134 121.182,9.172 121.395,9.172C121.696,9.172 121.897,9.071 121.999,8.87C122.065,8.741 122.098,8.524 122.098,8.22L122.098,8.015C122.018,8.151 121.932,8.254 121.84,8.322C121.674,8.449 121.459,8.513 121.193,8.513C120.783,8.513 120.455,8.369 120.21,8.08C119.965,7.792 119.842,7.402 119.842,6.91C119.842,6.435 119.96,6.037 120.197,5.713C120.433,5.39 120.768,5.228 121.202,5.228Z" style="fill-rule:nonzero;"/>
        <rect x="125.388" y="4.18" width="0.835" height="4.318" style="fill-rule:nonzero;"/>
        <path d="M127.896,4.924L127.049,4.924L127.049,4.153L127.896,4.153L127.896,4.924ZM127.049,5.305L127.896,5.305L127.896,8.498L127.049,8.498L127.049,5.305Z" style="fill-rule:nonzero;"/>
        <path d="M130.058,7.883C130.345,7.883 130.549,7.76 130.67,7.514C130.749,7.351 130.788,7.146 130.788,6.898C130.788,6.703 130.754,6.528 130.688,6.374C130.569,6.097 130.36,5.958 130.061,5.958C129.85,5.958 129.681,6.039 129.553,6.201C129.425,6.363 129.361,6.609 129.361,6.939C129.361,7.16 129.39,7.341 129.449,7.481C129.558,7.749 129.761,7.883 130.058,7.883ZM129.847,5.223C130.113,5.223 130.328,5.288 130.492,5.419C130.587,5.493 130.685,5.615 130.785,5.785L130.785,5.31L131.59,5.31L131.59,9.764L130.764,9.764L130.764,8.102C130.702,8.231 130.595,8.346 130.443,8.447C130.292,8.547 130.085,8.598 129.824,8.598C129.455,8.598 129.14,8.45 128.88,8.155C128.621,7.86 128.491,7.467 128.491,6.975C128.491,6.443 128.621,6.018 128.882,5.7C129.143,5.382 129.464,5.223 129.847,5.223Z" style="fill-rule:nonzero;"/>
        <path d="M133.202,5.305L133.202,7.229C133.202,7.411 133.223,7.548 133.266,7.64C133.342,7.802 133.492,7.883 133.714,7.883C134,7.883 134.195,7.767 134.3,7.537C134.355,7.412 134.382,7.247 134.382,7.042L134.382,5.305L135.229,5.305L135.229,8.498L134.418,8.498L134.418,8.047C134.41,8.057 134.39,8.086 134.359,8.135C134.328,8.183 134.291,8.226 134.248,8.264C134.117,8.381 133.99,8.461 133.868,8.504C133.746,8.547 133.603,8.568 133.439,8.568C132.966,8.568 132.648,8.398 132.484,8.058C132.392,7.871 132.346,7.595 132.346,7.229L132.346,5.305L133.202,5.305Z" style="fill-rule:nonzero;"/>
        <path d="M136.893,4.924L136.046,4.924L136.046,4.153L136.893,4.153L136.893,4.924ZM136.046,5.305L136.893,5.305L136.893,8.498L136.046,8.498L136.046,5.305Z" style="fill-rule:nonzero;"/>
        <path d="M138.879,5.228C139.073,5.228 139.245,5.271 139.395,5.356C139.545,5.441 139.668,5.558 139.761,5.709L139.761,4.185L140.608,4.185L140.608,8.498L139.796,8.498L139.796,8.056C139.677,8.245 139.542,8.383 139.389,8.469C139.237,8.555 139.047,8.598 138.821,8.598C138.448,8.598 138.134,8.447 137.879,8.145C137.624,7.843 137.497,7.456 137.497,6.983C137.497,6.438 137.622,6.01 137.873,5.697C138.124,5.385 138.46,5.228 138.879,5.228ZM139.061,7.894C139.297,7.894 139.477,7.807 139.6,7.631C139.723,7.455 139.785,7.227 139.785,6.948C139.785,6.558 139.686,6.278 139.489,6.11C139.368,6.009 139.227,5.958 139.067,5.958C138.823,5.958 138.644,6.05 138.529,6.235C138.415,6.419 138.358,6.648 138.358,6.922C138.358,7.217 138.416,7.453 138.532,7.629C138.648,7.806 138.825,7.894 139.061,7.894Z" style="fill-rule:nonzero;"/>
        <path d="M143.866,5.305L143.866,7.229C143.866,7.411 143.887,7.548 143.93,7.64C144.006,7.802 144.156,7.883 144.378,7.883C144.664,7.883 144.859,7.767 144.964,7.537C145.019,7.412 145.046,7.247 145.046,7.042L145.046,5.305L145.893,5.305L145.893,8.498L145.082,8.498L145.082,8.047C145.074,8.057 145.054,8.086 145.023,8.135C144.992,8.183 144.955,8.226 144.912,8.264C144.781,8.381 144.654,8.461 144.532,8.504C144.41,8.547 144.267,8.568 144.103,8.568C143.63,8.568 143.312,8.398 143.148,8.058C143.056,7.871 143.01,7.595 143.01,7.229L143.01,5.305L143.866,5.305Z" style="fill-rule:nonzero;"/>
        <path d="M147.349,7.478C147.367,7.627 147.405,7.732 147.463,7.795C147.567,7.906 147.758,7.962 148.038,7.962C148.202,7.962 148.332,7.937 148.429,7.889C148.525,7.84 148.574,7.766 148.574,7.669C148.574,7.575 148.535,7.504 148.457,7.455C148.378,7.406 148.088,7.322 147.586,7.203C147.225,7.113 146.97,7.001 146.822,6.866C146.673,6.733 146.599,6.542 146.599,6.292C146.599,5.997 146.715,5.744 146.946,5.532C147.178,5.32 147.503,5.214 147.923,5.214C148.322,5.214 148.647,5.293 148.897,5.453C149.148,5.612 149.293,5.887 149.33,6.277L148.495,6.277C148.483,6.17 148.453,6.085 148.404,6.022C148.312,5.909 148.156,5.852 147.935,5.852C147.753,5.852 147.624,5.881 147.547,5.937C147.47,5.994 147.431,6.06 147.431,6.137C147.431,6.232 147.472,6.302 147.554,6.345C147.636,6.39 147.926,6.467 148.424,6.576C148.756,6.654 149.005,6.772 149.171,6.931C149.335,7.091 149.418,7.291 149.418,7.531C149.418,7.848 149.3,8.106 149.064,8.306C148.829,8.506 148.465,8.606 147.973,8.606C147.471,8.606 147.101,8.5 146.861,8.288C146.622,8.077 146.502,7.807 146.502,7.478L147.349,7.478Z" style="fill-rule:nonzero;"/>
        <path d="M151.295,5.908C151.102,5.908 150.952,5.969 150.846,6.09C150.739,6.211 150.672,6.375 150.645,6.582L151.943,6.582C151.929,6.361 151.862,6.194 151.742,6.079C151.622,5.965 151.473,5.908 151.295,5.908ZM151.295,5.22C151.561,5.22 151.8,5.269 152.013,5.369C152.226,5.469 152.402,5.626 152.541,5.841C152.666,6.03 152.747,6.25 152.784,6.5C152.805,6.646 152.814,6.857 152.81,7.133L150.625,7.133C150.636,7.453 150.737,7.678 150.926,7.807C151.042,7.887 151.18,7.927 151.342,7.927C151.514,7.927 151.654,7.878 151.761,7.78C151.82,7.727 151.872,7.654 151.917,7.56L152.769,7.56C152.748,7.75 152.649,7.942 152.473,8.138C152.2,8.448 151.817,8.603 151.325,8.603C150.918,8.603 150.56,8.473 150.25,8.211C149.939,7.949 149.784,7.523 149.784,6.933C149.784,6.381 149.924,5.957 150.204,5.662C150.484,5.367 150.848,5.22 151.295,5.22Z" style="fill-rule:nonzero;"/>
        <path d="M154.55,5.228C154.744,5.228 154.916,5.271 155.066,5.356C155.216,5.441 155.338,5.558 155.432,5.709L155.432,4.185L156.279,4.185L156.279,8.498L155.467,8.498L155.467,8.056C155.348,8.245 155.212,8.383 155.06,8.469C154.908,8.555 154.718,8.598 154.492,8.598C154.119,8.598 153.805,8.447 153.55,8.145C153.295,7.843 153.168,7.456 153.168,6.983C153.168,6.438 153.293,6.01 153.544,5.697C153.795,5.385 154.13,5.228 154.55,5.228ZM154.732,7.894C154.968,7.894 155.148,7.807 155.271,7.631C155.394,7.455 155.456,7.227 155.456,6.948C155.456,6.558 155.357,6.278 155.16,6.11C155.039,6.009 154.898,5.958 154.738,5.958C154.494,5.958 154.314,6.05 154.2,6.235C154.086,6.419 154.029,6.648 154.029,6.922C154.029,7.217 154.087,7.453 154.203,7.629C154.319,7.806 154.496,7.894 154.732,7.894Z" style="fill-rule:nonzero;"/>
        <path d="M16.541,4.876L17.387,4.876L17.874,7.176L18.372,4.876L19.242,4.876L18.316,8.07L17.458,8.07L16.957,5.743L16.45,8.07L15.583,8.07L14.686,4.876L15.583,4.876L16.081,7.167L16.541,4.876Z" style="fill-rule:nonzero;"/>
        <path d="M21.463,6.517C21.41,6.55 21.357,6.577 21.303,6.597C21.249,6.618 21.175,6.637 21.082,6.655L20.894,6.69C20.718,6.721 20.592,6.759 20.516,6.804C20.387,6.88 20.323,6.998 20.323,7.158C20.323,7.301 20.362,7.404 20.442,7.468C20.521,7.531 20.617,7.563 20.73,7.563C20.91,7.563 21.075,7.51 21.227,7.405C21.378,7.299 21.457,7.107 21.463,6.827L21.463,6.517ZM20.956,6.127C21.11,6.108 21.22,6.083 21.287,6.054C21.406,6.003 21.465,5.924 21.465,5.817C21.465,5.686 21.42,5.595 21.329,5.546C21.238,5.496 21.105,5.471 20.929,5.471C20.732,5.471 20.592,5.52 20.51,5.617C20.452,5.69 20.413,5.787 20.393,5.91L19.588,5.91C19.605,5.631 19.683,5.402 19.822,5.222C20.043,4.941 20.422,4.8 20.959,4.8C21.308,4.8 21.619,4.869 21.89,5.008C22.162,5.147 22.298,5.408 22.298,5.793L22.298,7.258C22.298,7.36 22.299,7.483 22.303,7.627C22.309,7.737 22.326,7.811 22.353,7.85C22.381,7.889 22.422,7.921 22.476,7.947L22.476,8.07L21.568,8.07C21.543,8.005 21.525,7.945 21.515,7.888C21.506,7.831 21.498,7.767 21.492,7.695C21.377,7.82 21.244,7.926 21.093,8.014C20.914,8.117 20.711,8.169 20.484,8.169C20.195,8.169 19.956,8.087 19.768,7.922C19.579,7.757 19.485,7.523 19.485,7.22C19.485,6.827 19.636,6.543 19.939,6.367C20.105,6.272 20.349,6.203 20.672,6.162L20.956,6.127Z" style="fill-rule:nonzero;"/>
        <path d="M22.711,5.5L22.711,4.905L23.156,4.905L23.156,4.015L23.982,4.015L23.982,4.905L24.501,4.905L24.501,5.5L23.982,5.5L23.982,7.188C23.982,7.319 23.999,7.4 24.032,7.432C24.065,7.465 24.167,7.481 24.337,7.481C24.362,7.481 24.389,7.48 24.417,7.479C24.445,7.478 24.473,7.477 24.501,7.475L24.501,8.099L24.105,8.114C23.711,8.127 23.441,8.059 23.297,7.908C23.203,7.813 23.156,7.665 23.156,7.466L23.156,5.5L22.711,5.5Z" style="fill-rule:nonzero;"/>
        <path d="M26.297,5.48C26.103,5.48 25.953,5.54 25.847,5.661C25.74,5.782 25.674,5.947 25.646,6.154L26.944,6.154C26.93,5.933 26.863,5.765 26.743,5.651C26.623,5.537 26.474,5.48 26.297,5.48ZM26.297,4.791C26.562,4.791 26.801,4.841 27.014,4.941C27.227,5.04 27.403,5.197 27.542,5.412C27.667,5.602 27.748,5.822 27.785,6.072C27.806,6.218 27.815,6.429 27.811,6.704L25.626,6.704C25.637,7.025 25.738,7.249 25.927,7.378C26.043,7.458 26.181,7.498 26.343,7.498C26.515,7.498 26.655,7.449 26.762,7.352C26.821,7.299 26.873,7.226 26.918,7.132L27.77,7.132C27.749,7.322 27.65,7.514 27.474,7.709C27.201,8.02 26.818,8.175 26.326,8.175C25.92,8.175 25.561,8.044 25.251,7.782C24.94,7.521 24.785,7.095 24.785,6.505C24.785,5.952 24.925,5.529 25.205,5.234C25.486,4.939 25.849,4.791 26.297,4.791Z" style="fill-rule:nonzero;"/>
        <path d="M30.108,4.8L30.219,4.806L30.219,5.661C30.167,5.655 30.12,5.652 30.079,5.65C30.038,5.648 30.005,5.647 29.979,5.647C29.643,5.647 29.418,5.756 29.302,5.975C29.238,6.098 29.206,6.287 29.206,6.543L29.206,8.07L28.365,8.07L28.365,4.876L29.162,4.876L29.162,5.433C29.291,5.22 29.403,5.074 29.499,4.996C29.655,4.865 29.858,4.8 30.108,4.8Z" style="fill-rule:nonzero;"/>
        <path d="M33.208,4.876L33.208,6.801C33.208,6.983 33.229,7.119 33.272,7.211C33.348,7.373 33.498,7.454 33.72,7.454C34.006,7.454 34.201,7.339 34.306,7.109C34.361,6.984 34.388,6.819 34.388,6.614L34.388,4.876L35.235,4.876L35.235,8.07L34.424,8.07L34.424,7.618C34.416,7.628 34.396,7.657 34.365,7.706C34.334,7.755 34.297,7.798 34.254,7.835C34.123,7.952 33.996,8.032 33.874,8.075C33.752,8.118 33.609,8.14 33.445,8.14C32.972,8.14 32.654,7.97 32.49,7.63C32.398,7.443 32.352,7.166 32.352,6.801L32.352,4.876L33.208,4.876Z" style="fill-rule:nonzero;"/>
        <path d="M36.691,7.05C36.709,7.198 36.747,7.304 36.805,7.366C36.909,7.478 37.1,7.533 37.38,7.533C37.544,7.533 37.674,7.509 37.771,7.46C37.867,7.411 37.916,7.338 37.916,7.24C37.916,7.147 37.877,7.075 37.799,7.027C37.72,6.978 37.43,6.894 36.928,6.775C36.567,6.685 36.312,6.572 36.164,6.438C36.015,6.305 35.941,6.114 35.941,5.864C35.941,5.569 36.057,5.315 36.288,5.103C36.52,4.891 36.845,4.785 37.265,4.785C37.664,4.785 37.988,4.865 38.239,5.024C38.49,5.183 38.634,5.458 38.672,5.849L37.837,5.849C37.825,5.741 37.795,5.656 37.746,5.594C37.654,5.481 37.498,5.424 37.277,5.424C37.095,5.424 36.966,5.452 36.889,5.509C36.812,5.566 36.773,5.632 36.773,5.708C36.773,5.804 36.814,5.873 36.896,5.916C36.978,5.961 37.268,6.038 37.766,6.148C38.098,6.226 38.347,6.344 38.513,6.502C38.677,6.662 38.759,6.863 38.759,7.103C38.759,7.419 38.642,7.677 38.406,7.878C38.171,8.078 37.807,8.178 37.315,8.178C36.813,8.178 36.443,8.072 36.203,7.86C35.964,7.648 35.844,7.378 35.844,7.05L36.691,7.05Z" style="fill-rule:nonzero;"/>
        <path d="M41.138,6.517C41.086,6.55 41.032,6.577 40.979,6.597C40.925,6.618 40.851,6.637 40.757,6.655L40.57,6.69C40.394,6.721 40.268,6.759 40.192,6.804C40.063,6.88 39.999,6.998 39.999,7.158C39.999,7.301 40.038,7.404 40.117,7.468C40.196,7.531 40.293,7.563 40.406,7.563C40.586,7.563 40.751,7.51 40.903,7.405C41.054,7.299 41.132,7.107 41.138,6.827L41.138,6.517ZM40.632,6.127C40.786,6.108 40.896,6.083 40.963,6.054C41.082,6.003 41.141,5.924 41.141,5.817C41.141,5.686 41.096,5.595 41.005,5.546C40.914,5.496 40.781,5.471 40.605,5.471C40.408,5.471 40.268,5.52 40.186,5.617C40.128,5.69 40.089,5.787 40.069,5.91L39.263,5.91C39.281,5.631 39.359,5.402 39.498,5.222C39.718,4.941 40.097,4.8 40.634,4.8C40.984,4.8 41.295,4.869 41.566,5.008C41.838,5.147 41.973,5.408 41.973,5.793L41.973,7.258C41.973,7.36 41.975,7.483 41.979,7.627C41.985,7.737 42.002,7.811 42.029,7.85C42.056,7.889 42.097,7.921 42.152,7.947L42.152,8.07L41.244,8.07C41.218,8.005 41.201,7.945 41.191,7.888C41.181,7.831 41.174,7.767 41.168,7.695C41.052,7.82 40.92,7.926 40.769,8.014C40.59,8.117 40.386,8.169 40.16,8.169C39.871,8.169 39.632,8.087 39.444,7.922C39.255,7.757 39.161,7.523 39.161,7.22C39.161,6.827 39.312,6.543 39.615,6.367C39.781,6.272 40.025,6.203 40.347,6.162L40.632,6.127Z" style="fill-rule:nonzero;"/>
        <path d="M44.086,7.384C44.281,7.384 44.446,7.31 44.581,7.163C44.715,7.015 44.783,6.78 44.783,6.458C44.783,6.155 44.719,5.925 44.591,5.767C44.463,5.609 44.292,5.53 44.077,5.53C43.784,5.53 43.582,5.667 43.47,5.943C43.412,6.089 43.382,6.27 43.382,6.485C43.382,6.67 43.414,6.835 43.476,6.98C43.59,7.249 43.793,7.384 44.086,7.384ZM43.878,4.8C44.038,4.8 44.177,4.824 44.297,4.873C44.5,4.957 44.664,5.112 44.789,5.336L44.789,4.876L45.6,4.876L45.6,7.905C45.6,8.318 45.531,8.628 45.392,8.837C45.154,9.197 44.697,9.376 44.021,9.376C43.613,9.376 43.28,9.296 43.022,9.136C42.764,8.976 42.622,8.737 42.594,8.418L43.503,8.418C43.526,8.516 43.564,8.586 43.617,8.629C43.707,8.705 43.858,8.743 44.071,8.743C44.372,8.743 44.573,8.643 44.674,8.442C44.741,8.313 44.774,8.096 44.774,7.791L44.774,7.586C44.694,7.723 44.608,7.825 44.516,7.894C44.35,8.021 44.134,8.084 43.869,8.084C43.459,8.084 43.131,7.94 42.886,7.652C42.641,7.364 42.518,6.974 42.518,6.482C42.518,6.007 42.636,5.608 42.873,5.285C43.109,4.962 43.444,4.8 43.878,4.8Z" style="fill-rule:nonzero;"/>
        <path d="M47.639,5.48C47.446,5.48 47.296,5.54 47.19,5.661C47.083,5.782 47.016,5.947 46.989,6.154L48.287,6.154C48.273,5.933 48.206,5.765 48.086,5.651C47.966,5.537 47.817,5.48 47.639,5.48ZM47.639,4.791C47.905,4.791 48.144,4.841 48.357,4.941C48.57,5.04 48.746,5.197 48.884,5.412C49.009,5.602 49.09,5.822 49.128,6.072C49.149,6.218 49.158,6.429 49.154,6.704L46.968,6.704C46.98,7.025 47.081,7.249 47.27,7.378C47.385,7.458 47.524,7.498 47.686,7.498C47.858,7.498 47.998,7.449 48.105,7.352C48.164,7.299 48.215,7.226 48.26,7.132L49.113,7.132C49.091,7.322 48.993,7.514 48.817,7.709C48.544,8.02 48.161,8.175 47.669,8.175C47.262,8.175 46.904,8.044 46.593,7.782C46.283,7.521 46.128,7.095 46.128,6.505C46.128,5.952 46.268,5.529 46.548,5.234C46.828,4.939 47.192,4.791 47.639,4.791Z" style="fill-rule:nonzero;"/>
        <path d="M117.51,198.982L117.51,198.388L117.955,198.388L117.955,197.497L118.782,197.497L118.782,198.388L119.3,198.388L119.3,198.982L118.782,198.982L118.782,200.67C118.782,200.801 118.798,200.882 118.831,200.914C118.865,200.947 118.966,200.963 119.136,200.963C119.161,200.963 119.188,200.962 119.217,200.961C119.245,200.96 119.273,200.959 119.3,200.957L119.3,201.581L118.905,201.596C118.51,201.609 118.241,201.541 118.096,201.39C118.002,201.295 117.955,201.147 117.955,200.948L117.955,198.982L117.51,198.982Z" style="fill-rule:nonzero;"/>
        <path d="M120.695,197.977L119.848,197.977L119.848,197.207L120.695,197.207L120.695,197.977ZM119.848,198.358L120.695,198.358L120.695,201.552L119.848,201.552L119.848,198.358Z" style="fill-rule:nonzero;"/>
        <path d="M125.072,198.288C125.212,198.288 125.351,198.315 125.488,198.37C125.624,198.425 125.748,198.52 125.86,198.657C125.95,198.768 126.01,198.905 126.041,199.067C126.061,199.175 126.071,199.332 126.071,199.539L126.065,201.552L125.209,201.552L125.209,199.518C125.209,199.397 125.19,199.298 125.151,199.22C125.077,199.071 124.94,198.997 124.741,198.997C124.51,198.997 124.351,199.093 124.263,199.284C124.218,199.386 124.196,199.508 124.196,199.65L124.196,201.552L123.355,201.552L123.355,199.65C123.355,199.461 123.335,199.323 123.296,199.237C123.226,199.083 123.088,199.006 122.883,199.006C122.645,199.006 122.485,199.083 122.403,199.237C122.358,199.325 122.335,199.456 122.335,199.63L122.335,201.552L121.489,201.552L121.489,198.364L122.3,198.364L122.3,198.83C122.404,198.664 122.501,198.546 122.593,198.475C122.755,198.35 122.965,198.288 123.223,198.288C123.467,198.288 123.664,198.342 123.815,198.449C123.936,198.549 124.028,198.677 124.09,198.833C124.2,198.645 124.335,198.508 124.497,198.42C124.669,198.332 124.861,198.288 125.072,198.288Z" style="fill-rule:nonzero;"/>
        <path d="M128.098,198.962C127.905,198.962 127.755,199.022 127.648,199.143C127.542,199.264 127.475,199.429 127.448,199.636L128.745,199.636C128.732,199.415 128.665,199.247 128.545,199.133C128.425,199.019 128.276,198.962 128.098,198.962ZM128.098,198.273C128.364,198.273 128.603,198.323 128.816,198.423C129.029,198.522 129.204,198.68 129.343,198.894C129.468,199.084 129.549,199.304 129.586,199.554C129.608,199.7 129.617,199.911 129.613,200.186L127.427,200.186C127.439,200.507 127.539,200.731 127.729,200.86C127.844,200.94 127.983,200.98 128.145,200.98C128.317,200.98 128.456,200.931 128.564,200.834C128.622,200.781 128.674,200.708 128.719,200.614L129.572,200.614C129.55,200.804 129.452,200.996 129.276,201.191C129.002,201.502 128.619,201.657 128.127,201.657C127.721,201.657 127.363,201.526 127.052,201.264C126.742,201.003 126.586,200.577 126.586,199.987C126.586,199.434 126.726,199.011 127.007,198.716C127.287,198.421 127.651,198.273 128.098,198.273Z" style="fill-rule:nonzero;"/>
    </g>
</svg>
