<?xml version="1.0" encoding="UTF-8" standalone="no"?>
<!DOCTYPE svg PUBLIC "-//W3C//DTD SVG 1.1//EN" "http://www.w3.org/Graphics/SVG/1.1/DTD/svg11.dtd">
<svg width="100%" height="100%" viewBox="0 0 366 207" version="1.1" xmlns="http://www.w3.org/2000/svg" xmlns:xlink="http://www.w3.org/1999/xlink" xml:space="preserve" xmlns:serif="http://www.serif.com/" style="fill-rule:evenodd;clip-rule:evenodd;stroke-linecap:round;stroke-linejoin:round;stroke-miterlimit:1.5;">
    <rect x="0" y="0.13" width="365.297" height="206.728" style="fill:#313f4c;"/>
    <g>
        <g id="washing-liquid" serif:id="washing liquid">
            <rect id="washingrect" x="95.467" y="0.392" width="87.06" height="102.757" style="fill:#f7f2ef;fill-opacity:0.74;stroke:#000;stroke-width:0.73px;"/>
            <g id="bubble5">
                <ellipse cx="112.354" cy="86.514" rx="4.57" ry="4.544" style="fill:#cfdfd8;stroke:#000;stroke-width:1px;"/>
                <path d="M111.42,83.659c-2.204,1.519 -2.305,3.661 -0.004,5.281" style="fill:none;stroke:#000;stroke-width:1px;"/>
            </g>
            <g>
                <ellipse cx="109.728" cy="52.333" rx="6.987" ry="6.949" style="fill:#cfdfd8;stroke:#000;stroke-width:1px;"/>
                <path d="M108.299,47.967c-3.37,2.322 -3.524,5.598 -0.005,8.074" style="fill:none;stroke:#000;stroke-width:1px;"/>
            </g>
            <g id="bubble2">
                <ellipse cx="141.669" cy="77.169" rx="6.027" ry="5.993" style="fill:#cfdfd8;stroke:#000;stroke-width:1px;"/>
                <path d="M140.437,73.403c-2.906,2.003 -3.039,4.829 -0.004,6.964" style="fill:none;stroke:#000;stroke-width:1px;"/>
            </g>
            <g id="bubble6">
                <ellipse cx="105.044" cy="73.182" rx="6.856" ry="6.818" style="fill:#f2eee2;stroke:#000;stroke-width:1px;"/>
                <path d="M103.642,68.898c-3.306,2.278 -3.457,5.493 -0.005,7.922" style="fill:none;stroke:#000;stroke-width:1px;"/>
            </g>
            <g id="bubble3">
                <ellipse cx="129.972" cy="91.503" rx="10.052" ry="9.996" style="fill:#f2eee2;stroke:#000;stroke-width:1px;"/>
                <path d="M127.916,85.223c-4.847,3.34 -5.069,8.053 -0.007,11.615" style="fill:#f2eee2;stroke:#000;stroke-width:1px;"/>
            </g>
            <g id="bubble4">
                <ellipse cx="122.833" cy="71.551" rx="7.342" ry="7.301" style="fill:#cfdfd8;stroke:#000;stroke-width:1px;"/>
                <path d="M121.331,66.964c-3.54,2.439 -3.702,5.882 -0.005,8.483" style="fill:none;stroke:#000;stroke-width:1px;"/>
            </g>
            <g id="bubble1">
                <ellipse cx="149.617" cy="46.194" rx="18.042" ry="17.67" style="fill:#f1ede0;fill-opacity:0.84;stroke:#000;stroke-width:1px;"/>
                <path d="M141.447,33.713c-8.119,6.907 -8.492,16.653 -0.012,24.02" style="fill:none;stroke:#170000;stroke-width:1px;"/>
            </g>
        </g>
        <g id="water-usage" serif:id="water usage">
            <rect id="waterrect" x="9.832" y="0.392" width="85.83" height="102.757" style="fill:#eae5db;fill-opacity:0.74;stroke:#000;stroke-width:0.73px;"/>
            <path id="water" d="M49.273,100.079c3.599,-0 6.754,2.451 10.327,2.152c5.446,-0.457 15.608,-5.322 22.347,-4.891c5.892,0.377 13.518,4.891 13.518,4.891l-85.077,-0c-0,-0 8.882,-3.071 14.139,-2.825c3.326,0.155 7.986,2.712 12.11,2.825c4.124,0.112 8.808,-2.152 12.636,-2.152Z" style="fill:#23439f;"/>
            <ellipse id="gauge-circle" serif:id="gauge circle" cx="52.491" cy="53.577" rx="36.143" ry="35.853" style="fill:#f1ede0;fill-opacity:0.84;stroke:#000;stroke-width:1px;"/>
            <path id="gauge-arrow" serif:id="gauge arrow" d="M49.138,46.414l0.027,-8.693l-9.072,2.218l12.585,-16.84l12.482,16.916l-9.058,-2.273l-0.027,8.652c2.435,1.239 4.103,3.751 4.103,6.644c-0,2.91 -1.686,5.433 -4.144,6.665l-0.071,23.275l-6.937,-0.022l0.072,-23.315c-2.392,-1.254 -4.023,-3.741 -4.023,-6.603c0,-2.878 1.649,-5.377 4.063,-6.624Z" style="fill:#bab9b5;fill-opacity:0.84;stroke:#000;stroke-width:1px;"/>
            <ellipse id="gauge-pivot" serif:id="gauge pivot" cx="52.719" cy="52.973" rx="5" ry="4.967" style="fill:#ef6840;fill-opacity:0.84;stroke:#000;stroke-width:1px;"/>
        </g>
        <g id="time">
            <path d="M112.434,103.177l-82.221,-0c-2.163,5.063 -3.281,10.488 -3.278,15.983c0.007,14.848 8.058,27.992 20.342,35.551c-0.898,0.512 -1.583,0.926 -1.844,1.117c-0.129,0.094 -0.254,0.189 -0.376,0.284c-11.038,7.734 -18.115,20.153 -18.122,34.092c-0.003,5.544 1.269,10.539 3.47,15.64l82.102,-0.476c2.196,-5.089 3.201,-9.592 3.203,-15.121c0.007,-14.141 -7.265,-26.727 -18.575,-34.445c-0.241,-0.175 -0.495,-0.346 -0.763,-0.514c-0.185,-0.116 -0.536,-0.32 -1.001,-0.581c12.292,-7.566 20.347,-20.73 20.339,-35.591c-0.002,-5.48 -1.119,-10.89 -3.276,-15.939Z" style="fill:#89a5a0;"/>
            <rect id="timerect" x="9.711" y="102.577" width="129.587" height="103.717" style="fill:#9eab9f;fill-opacity:0.74;stroke:#000;stroke-width:0.84px;"/>
            <path id="timer" d="M59.727,148.238c-12.422,-4.363 -21.27,-15.534 -21.276,-28.616c-0.003,-5.37 1.783,-10.983 4.666,-15.635l55.769,0.167c2.888,4.649 5.306,10.066 5.309,15.436c0.006,13.34 -9.183,24.702 -21.988,28.888c-1.62,1.719 -2.562,3.774 -2.562,5.981c-0,2.616 1.323,5.018 3.529,6.9c2.436,0.878 7.226,3.554 7.137,3.573c8.404,5.548 13.889,14.675 13.884,24.983c-0.003,5.37 -1.524,10.644 -4.412,15.293l-56.936,-0.027c-2.883,-4.652 -4.399,-9.929 -4.396,-15.299c0.005,-10.252 5.44,-19.33 13.77,-24.877c-0.213,-0.041 4.394,-2.542 6.37,-3.316c2.446,-1.928 3.931,-4.459 3.931,-7.23c0,-2.311 -1.033,-4.455 -2.795,-6.221Z" style="fill:#ece8d8;stroke:#000;stroke-width:0.99px;"/>
            <path id="timerreflection" d="M42.335,204.165c-1.098,-2.115 -1.831,-4.322 -2.274,-6.593c-0.442,-2.26 -0.593,-4.58 -0.532,-6.931c0.112,-4.77 1.45,-9.232 3.708,-13.141c2.272,-3.931 5.483,-7.29 9.345,-9.808c-0,-0 0.202,-0.156 0.202,-0.156c0.436,-0.239 1.94,-1.055 3.375,-1.779c0.866,-0.437 1.705,-0.839 2.253,-1.048l0.662,-0.363c1.965,-1.074 3.338,-2.521 4.3,-4.197c0.962,-1.675 1.498,-3.591 1.783,-5.61c0.226,-1.67 -0.283,-3.795 -1.353,-5.651c-1.018,-1.764 -2.532,-3.265 -4.262,-3.964c-2.728,-1.071 -5.279,-2.477 -7.595,-4.144c-2.377,-1.712 -4.504,-3.701 -6.292,-5.942c-3.592,-4.502 -5.838,-9.98 -6.008,-16.102c-0.076,-2.344 0.105,-4.689 0.57,-6.978c0.468,-2.303 1.217,-4.543 2.293,-6.665c-1.234,2.06 -2.151,4.262 -2.778,6.549c-0.632,2.308 -0.962,4.694 -1.038,7.095c-0.173,6.448 1.865,12.356 5.421,17.271c1.796,2.482 3.983,4.704 6.466,6.61c2.422,1.858 5.136,3.397 8.03,4.605c1.251,0.508 2.298,1.641 3.04,2.913c0.786,1.348 1.245,2.871 1.093,4.089c-0.204,1.718 -0.608,3.356 -1.389,4.795c-0.737,1.355 -1.803,2.535 -3.349,3.432l-0.396,0.257c-0.587,0.246 -1.488,0.709 -2.413,1.214c-1.479,0.806 -3.028,1.714 -3.411,1.94c-0.064,0.036 -0.123,0.079 -0.177,0.129l-0.118,0.099c-3.968,2.825 -7.231,6.5 -9.448,10.753c-2.165,4.154 -3.342,8.847 -3.231,13.797c0.06,2.389 0.334,4.737 0.899,7.009c0.563,2.261 1.411,4.444 2.624,6.515Z" style="fill:#808080;fill-opacity:0.35;"/>
            <path id="timerreflection1" serif:id="timerreflection" d="M100.454,203.825c1.214,-2.071 2.062,-4.254 2.625,-6.515c0.565,-2.272 0.839,-4.619 0.898,-7.009c0.112,-4.95 -1.065,-9.643 -3.23,-13.797c-2.218,-4.253 -5.48,-7.928 -9.448,-10.753c-0,0 -0.118,-0.099 -0.118,-0.099c-0.054,-0.05 -0.114,-0.093 -0.177,-0.129c-0.383,-0.226 -1.932,-1.134 -3.411,-1.94c-0.926,-0.505 -1.826,-0.967 -2.413,-1.214l-0.397,-0.257c-1.545,-0.897 -2.612,-2.077 -3.348,-3.432c-0.782,-1.439 -1.185,-3.077 -1.39,-4.795c-0.151,-1.218 0.308,-2.741 1.094,-4.088c0.741,-1.273 1.789,-2.406 3.04,-2.913c2.894,-1.208 5.607,-2.747 8.03,-4.606c2.483,-1.906 4.67,-4.128 6.466,-6.61c3.556,-4.915 5.594,-10.823 5.421,-17.271c-0.076,-2.401 -0.406,-4.787 -1.038,-7.095c-0.627,-2.287 -1.544,-4.489 -2.778,-6.549c1.076,2.122 1.825,4.363 2.293,6.665c0.464,2.29 0.645,4.634 0.569,6.979c-0.17,6.121 -2.415,11.599 -6.007,16.101c-1.788,2.241 -3.915,4.23 -6.293,5.942c-2.315,1.668 -4.866,3.073 -7.595,4.144c-1.729,0.699 -3.244,2.201 -4.261,3.964c-1.07,1.856 -1.58,3.981 -1.354,5.651c0.285,2.02 0.822,3.935 1.783,5.61c0.963,1.676 2.336,3.123 4.301,4.197l0.662,0.363c0.547,0.209 1.387,0.611 2.252,1.048c1.432,0.722 2.931,1.536 3.372,1.777c0.004,0.002 0.206,0.158 0.206,0.158c3.861,2.518 7.073,5.878 9.344,9.808c2.259,3.909 3.597,8.371 3.709,13.141c0.061,2.351 -0.091,4.671 -0.532,6.931c-0.443,2.271 -1.176,4.478 -2.275,6.593Z" style="fill:#808080;fill-opacity:0.35;"/>
            <path id="sandtopbig" d="M98.378,104.937c2.617,4.314 4.447,8.704 4.447,13.685c-0,15.661 -15.269,28.613 -31.727,28.613c-16.457,-0 -31.154,-12.679 -31.154,-28.341c-0,-4.981 0.997,-9.537 3.614,-13.851c16.459,4.001 36.847,3.895 54.82,-0.106Z" style="fill:#ddcf90;"/>
            <path id="sandtopbottom" d="M95.587,104.885c2.373,0.483 4.031,0.974 4.031,1.531c0,1.752 -13.84,3.201 -28.759,3.201c-14.918,-0 -28.24,-1.419 -28.24,-3.171c-0,-0.557 0.904,-1.067 3.277,-1.549c14.919,0.447 33.399,0.436 49.691,-0.012Z" style="fill:#ddcf90;"/>
            <path id="sandtopsmall" d="M83.079,142.594c1.143,0.584 1.64,-0.213 1.51,0.462c-0.355,1.837 -6.856,3.833 -13.847,3.878c-7.257,0.047 -10.709,-0.696 -10.451,-2.474c0.098,-0.674 -0.458,-0.679 0.685,-1.264c4.654,3.829 14.789,3.596 22.103,-0.602Z" style="fill:#ddcf90;"/>
            <path id="sandbottombig" d="M99.341,204.579c0,0 3.812,-7.251 3.67,-13.616c-0.378,-16.933 -14.687,-28.542 -31.701,-28.542c-17.015,0 -31.591,13.222 -31.591,28.655c0,4.909 3.727,13.765 3.727,13.765l55.895,-0.262Z" style="fill:#ddcf90;"/>
            <path id="sandbottomtop" d="M80.282,165.936c0,0 1.232,-0.54 1.186,-1.014c-0.122,-1.262 -4.745,-2.126 -10.241,-2.126c-5.497,-0 -10.205,0.985 -10.205,2.134c-0,0.366 1.203,1.026 1.203,1.026l18.057,-0.02Z" style="fill:#c7b461;"/>
            <path id="sandbottomsmall" d="M95.542,204.597c0,0 4.18,0.447 4.18,-0.141c-0,-1.849 -12.955,-4.884 -28.373,-4.884c-15.419,0 -28.1,3.191 -28.1,5.04c0,0.588 3.906,-0.015 3.906,-0.015l48.387,0Z" style="fill:#ddcf90;"/>
            <ellipse id="origin" cx="71.246" cy="155.031" rx="2.068" ry="2.121" style="fill:none;stroke:#000;stroke-width:0.95px;"/>
        </g>
        <g id="technique">
            <rect id="techrect" x="182.598" y="0.483" width="172.594" height="102.667" style="fill:#fdf4cb;fill-opacity:0.74;stroke:#000;stroke-width:0.96px;"/>
            <rect x="182.593" y="84.383" width="172.35" height="18.283" style="fill:#ddcf90;stroke:#000102;stroke-width:0.91px;"/>
            <rect x="331.822" y="0.965" width="23.274" height="83.496" style="fill:#a8bbb8;stroke:#272000;stroke-width:0.9px;"/>
            <path d="M343.858,12.616c-1.385,-0 -2.509,1.124 -2.509,2.51l-0,63.847c-0,1.385 1.124,2.51 2.509,2.51c1.385,-0 2.51,-1.125 2.51,-2.51l0,-63.847c0,-1.386 -1.125,-2.51 -2.51,-2.51Z" style="fill:#858f8d;fill-opacity:0.55;"/>
            <path d="M341.631,94.067c0,-1.385 -1.124,-2.51 -2.509,-2.51l-149.663,0c-1.385,0 -2.51,1.125 -2.51,2.51c0,1.385 1.125,2.51 2.51,2.51l149.663,-0c1.385,-0 2.509,-1.125 2.509,-2.51Z" style="fill:#bfab50;fill-opacity:0.57;"/>
            <path d="M189.98,93.946l148.065,0" style="fill:none;stroke:#000;stroke-width:0.95px;"/>
            <path d="M344.151,78.896l0,-64.288" style="fill:none;stroke:#000;stroke-width:1.51px;"/>
            <g id="dishmatic">
                <path id="spongetop" d="M302.811,79.838l-71.957,-0l0,-13.068c0,-2.405 1.952,-4.356 4.356,-4.356l64.129,-0c1.917,-0 3.472,1.555 3.472,3.472l0,13.952Z" style="fill:#f1ede0;fill-opacity:0.84;stroke:#000;stroke-width:1.03px;"/>
                <path id="spongebottom" d="M230.854,79.838l71.957,-0l0,1.048c0,2.633 -2.137,4.77 -4.77,4.77l-62.426,0c-2.628,0 -4.761,-2.133 -4.761,-4.76l0,-1.058Z" style="fill:#e75368;stroke:#000;stroke-width:0.93px;"/>
                <path id="handlebottom" d="M298.269,61.064c0,-1.283 -1.042,-2.325 -2.325,-2.325l-56.45,0c-1.337,0 -2.423,1.086 -2.423,2.424l-0,1.288l61.198,0l0,-1.387Z" style="fill:#f1ede0;stroke:#000;stroke-width:1.01px;"/>
                <path id="handle" d="M354.496,0.514l-0,5.324c-10.56,3.592 -44.841,21.876 -55.464,40.184c-2.168,3.737 -1.838,13.111 -1.838,13.111l-58.926,0.217c2.45,-12.722 29.151,-20.503 48.354,-32.605c11.703,-7.375 22.982,-17.102 34.595,-26.231l33.279,-0Z" style="fill:#ddcf90;stroke:#000;stroke-width:1.03px;"/>
            </g>
            <g id="yaccsponge">
                <path id="yaccspongetop" d="M205.654,96.097l-15.626,-0l0,-4.794c0,-0.882 0.716,-1.598 1.598,-1.598l12.754,-0c0.703,-0 1.274,0.57 1.274,1.273l0,5.119Z" style="fill:#f1ede0;fill-opacity:0.84;stroke:#000;stroke-width:0.85px;"/>
                <path id="yaccspongebottom" d="M190.028,96.097l15.626,-0l0,0.408c0,1.026 -0.832,1.858 -1.858,1.858l-11.913,0c-1.024,0 -1.855,-0.831 -1.855,-1.854l0,-0.412Z" style="fill:#e75368;fill-opacity:0.84;stroke:#000;stroke-width:0.89px;"/>
            </g>
            <g id="xaccsponge">
                <path id="xaccspongebottom" d="M339.872,67.884c-2.015,0 -3.65,1.636 -3.65,3.651l-0,4.053c-0,2.015 1.635,3.651 3.65,3.651c0,-0 8.519,-0 8.519,-0c2.015,-0 3.651,-1.636 3.651,-3.651c-0,0 -0,-4.053 -0,-4.053c-0,-2.015 -1.636,-3.651 -3.651,-3.651c0,0 -8.519,0 -8.519,0Z" style="fill:#e56a7b;stroke:#000;stroke-width:0.75px;"/>
                <path id="xaccspongetop" d="M339.872,69.509c-1.118,-0 -2.026,0.908 -2.026,2.026l-0,4.053c-0,1.119 0.908,2.027 2.026,2.027l8.519,-0c1.119,-0 2.027,-0.908 2.027,-2.027l-0,-4.053c-0,-1.118 -0.908,-2.026 -2.027,-2.026l-8.519,-0Z" style="fill:#f3eede;stroke:#000;stroke-width:0.75px;"/>
            </g>
            <g id="pressurelines">
                <path id="pressureline1" d="M228.77,79.263l-8.525,-7.727l3.614,-2.647l4.911,10.374Z"/>
                <path id="pressureline4" d="M307.209,79.335l8.525,-7.727l-3.614,-2.648l-4.911,10.375Z"/>
                <path id="pressureline2" d="M228.319,72.356l-3.984,-8.248l3.434,-0.884l0.55,9.132Z"/>
                <path id="pressureline3" d="M305.908,76.391l2.535,-6.792l-2.779,-0.476l0.244,7.268Z"/>
                <path id="pressureline5" d="M310.081,80.345l4.139,-4.059l1.238,1.845l-5.377,2.214Z"/>
            </g>
        </g>
        <g>
            <rect id="noiserect" x="138.978" y="102.577" width="130.892" height="103.7" style="fill:#848786;fill-opacity:0.74;stroke:#000;stroke-width:0.84px;"/>
            <path id="bullhorn1" d="M195.156,133.437c-3.091,1.235 -6.934,3 -8.278,3.62c-0.15,0.069 0.077,0.447 0.028,0.56c-0.05,0.112 -0.259,0.227 -0.326,0.114c-0.144,-0.244 -0.445,-0.826 -0.757,-1.456l-0,0.001l-0.025,-0.052l0.001,-0.001c-0.286,-0.643 -0.54,-1.248 -0.637,-1.516c-0.045,-0.124 0.172,-0.223 0.288,-0.194c0.116,0.029 0.262,0.447 0.408,0.368c1.876,-1.027 8.769,-4.815 10.847,-6.526c0.995,-0.82 1.245,-3.077 1.62,-3.743c0.118,-0.209 0.508,-0.483 0.634,-0.256c0.389,0.704 1.238,2.446 2.089,4.253l-0.001,0.001c0.837,1.791 1.623,3.532 1.914,4.277c0.094,0.243 -0.354,0.391 -0.586,0.358c-0.738,-0.105 -2.605,-1.296 -3.842,-0.992c-0.461,0.113 -1.066,0.31 -1.762,0.563c0.499,0.46 0.925,1.033 1.24,1.704c1.191,2.539 0.335,5.518 -1.91,6.648c-2.244,1.13 -5.034,-0.013 -6.225,-2.552c-0.366,-0.781 -0.452,-1.309 -0.45,-2.106l1.31,-0.667c-0.105,0.702 -0.009,1.456 0.321,2.159c0.818,1.743 2.761,2.514 4.337,1.72c1.577,-0.794 2.192,-2.853 1.375,-4.596c-0.361,-0.77 -0.942,-1.35 -1.613,-1.689Z" style="fill:#e77553;stroke:#000;stroke-width:0.68px;"/>
            <path id="bullhorn2" d="M250.784,118.401c-3.005,-1.444 -6.9,-3.082 -8.264,-3.652c-0.153,-0.064 -0.257,0.368 -0.37,0.409c-0.112,0.041 -0.337,-0.035 -0.305,-0.163c0.07,-0.277 0.264,-0.906 0.485,-1.576l-0.001,0l0.019,-0.054l0.001,0c0.248,-0.659 0.491,-1.27 0.61,-1.528c0.055,-0.119 0.274,-0.027 0.335,0.08c0.06,0.106 -0.128,0.506 0.028,0.559c2.016,0.685 9.435,3.19 12.066,3.549c1.261,0.172 3.001,-1.21 3.725,-1.393c0.227,-0.057 0.688,0.043 0.617,0.294c-0.218,0.78 -0.838,2.623 -1.501,4.512l-0,0c-0.663,1.868 -1.326,3.663 -1.641,4.397c-0.103,0.239 -0.517,0.009 -0.655,-0.187c-0.439,-0.623 -0.91,-2.842 -1.981,-3.553c-0.398,-0.264 -0.956,-0.578 -1.615,-0.921c0.027,0.691 -0.075,1.407 -0.322,2.108c-0.935,2.651 -3.597,4.083 -5.941,3.195c-2.345,-0.887 -3.489,-3.76 -2.554,-6.411c0.288,-0.816 0.595,-1.247 1.15,-1.799l1.373,0.513c-0.561,0.409 -1.017,1.005 -1.276,1.739c-0.642,1.82 0.173,3.804 1.819,4.427c1.646,0.623 3.504,-0.349 4.146,-2.169c0.284,-0.804 0.283,-1.64 0.052,-2.376Z" style="fill:#e77553;stroke:#000;stroke-width:0.7px;"/>
            <path id="bullhorn3" d="M243.377,166.5c-3.005,-1.444 -6.9,-3.081 -8.264,-3.652c-0.153,-0.064 -0.257,0.368 -0.37,0.409c-0.112,0.041 -0.337,-0.035 -0.305,-0.163c0.07,-0.277 0.264,-0.906 0.485,-1.575l-0.001,-0l0.019,-0.055l0.001,0c0.248,-0.659 0.491,-1.269 0.61,-1.528c0.055,-0.119 0.275,-0.026 0.335,0.08c0.06,0.107 -0.128,0.506 0.028,0.559c2.016,0.685 9.435,3.19 12.066,3.549c1.261,0.172 3.001,-1.21 3.725,-1.393c0.227,-0.057 0.688,0.043 0.617,0.295c-0.218,0.779 -0.838,2.622 -1.501,4.512l-0,-0.001c-0.663,1.868 -1.326,3.663 -1.641,4.398c-0.103,0.239 -0.517,0.008 -0.655,-0.188c-0.439,-0.623 -0.91,-2.842 -1.981,-3.552c-0.398,-0.265 -0.956,-0.579 -1.615,-0.921c0.027,0.69 -0.075,1.406 -0.322,2.107c-0.935,2.651 -3.597,4.083 -5.941,3.196c-2.345,-0.888 -3.489,-3.761 -2.554,-6.412c0.288,-0.815 0.595,-1.246 1.15,-1.799l1.373,0.513c-0.561,0.409 -1.017,1.005 -1.276,1.739c-0.642,1.82 0.173,3.804 1.819,4.427c1.646,0.623 3.504,-0.349 4.146,-2.169c0.284,-0.804 0.283,-1.639 0.052,-2.376Z" style="fill:#e77553;stroke:#000;stroke-width:0.7px;"/>
            <path id="bullhorn4" d="M225.763,188.888c-2.858,1.735 -6.376,4.119 -7.606,4.955c-0.137,0.094 0.146,0.429 0.114,0.548c-0.031,0.119 -0.22,0.268 -0.303,0.167c-0.18,-0.217 -0.568,-0.74 -0.973,-1.31l-0.001,0l-0.033,-0.047l0.002,-0.001c-0.383,-0.586 -0.728,-1.141 -0.865,-1.389c-0.064,-0.115 0.135,-0.249 0.254,-0.24c0.119,0.009 0.328,0.398 0.459,0.295c1.692,-1.326 7.906,-6.216 9.69,-8.252c0.854,-0.976 0.75,-3.245 1.017,-3.965c0.084,-0.226 0.426,-0.561 0.585,-0.358c0.494,0.63 1.603,2.207 2.724,3.848l-0.001,0.001c1.105,1.628 2.151,3.215 2.554,3.902c0.131,0.223 -0.288,0.445 -0.522,0.451c-0.744,0.019 -2.773,-0.845 -3.946,-0.338c-0.437,0.189 -1.004,0.485 -1.651,0.851c0.563,0.37 1.073,0.865 1.488,1.474c1.571,2.307 1.19,5.389 -0.85,6.88c-2.039,1.49 -4.97,0.828 -6.54,-1.479c-0.483,-0.709 -0.651,-1.216 -0.773,-2.003l1.189,-0.877c0.006,0.71 0.219,1.438 0.653,2.077c1.079,1.583 3.117,2.02 4.549,0.973c1.432,-1.047 1.719,-3.182 0.641,-4.766c-0.476,-0.699 -1.14,-1.175 -1.855,-1.397Z" style="fill:#e77553;stroke:#000;stroke-width:0.68px;"/>
            <path id="bullhorn5" d="M213.877,153.249c-2.285,2.484 -5.032,5.781 -5.992,6.936c-0.107,0.129 0.254,0.37 0.256,0.494c0.001,0.123 -0.141,0.32 -0.247,0.247c-0.231,-0.157 -0.744,-0.549 -1.285,-0.981l-0,0l-0.044,-0.036l0.001,-0.001c-0.524,-0.455 -1.003,-0.889 -1.202,-1.089c-0.091,-0.092 0.064,-0.278 0.181,-0.303c0.117,-0.025 0.422,0.289 0.52,0.152c1.273,-1.758 5.945,-8.233 7.118,-10.7c0.562,-1.181 -0.142,-3.333 -0.077,-4.101c0.02,-0.242 0.26,-0.661 0.467,-0.512c0.643,0.465 2.128,1.665 3.642,2.922l0,0c1.495,1.25 2.923,2.477 3.493,3.022c0.186,0.177 -0.158,0.51 -0.381,0.583c-0.711,0.23 -2.891,-0.02 -3.884,0.802c-0.37,0.306 -0.836,0.753 -1.36,1.289c0.64,0.195 1.262,0.525 1.823,0.993c2.123,1.768 2.577,4.84 1.013,6.855c-1.563,2.016 -4.557,2.216 -6.68,0.447c-0.653,-0.544 -0.949,-0.983 -1.276,-1.705l0.91,-1.182c0.194,0.681 0.592,1.32 1.18,1.809c1.458,1.215 3.533,1.052 4.631,-0.363c1.098,-1.415 0.806,-3.55 -0.652,-4.764c-0.644,-0.537 -1.408,-0.804 -2.155,-0.814Z" style="fill:#e77553;stroke:#000;stroke-width:0.68px;"/>
            <path id="bigbull" d="M139.102,165.062c5.356,-3.285 9.898,-6.248 12.864,-8.513c6.039,-4.61 8.347,-16.276 10.765,-19.846c0.758,-1.119 3.105,-2.681 3.74,-1.571c1.97,3.446 6.177,12.019 10.373,20.922l-0.003,0.002c4.121,8.829 7.966,17.422 9.351,21.119c0.451,1.203 -2.185,2.151 -3.503,2.077c-4.203,-0.236 -14.483,-5.564 -21.714,-3.493c-2.693,0.771 -6.252,2.033 -10.348,3.617c2.688,2.148 4.919,4.909 6.47,8.215c2.713,5.783 2.875,12.23 0.946,18.155l-8.584,-0c2.175,-4.622 2.437,-9.903 0.262,-14.539c-1.78,-3.793 -4.894,-6.524 -8.625,-7.985c-0.659,0.274 -1.323,0.553 -1.994,0.836l0,-18.996Z" style="fill:#bab9b5;stroke:#000;stroke-width:0.99px;"/>
            <path id="bigbull1" serif:id="bigbull" d="M166.261,135.467c0.097,-0.044 17.401,38.137 18.835,41.915c-0.108,0.088 -0.313,0.245 -0.477,0.326c-0.595,0.293 -1.358,0.477 -1.869,0.448c-2.053,-0.115 -5.584,-1.497 -9.491,-2.574c-4.196,-1.157 -8.793,-1.964 -12.586,-0.878c-2.718,0.778 -6.309,2.05 -10.442,3.648c-0.366,0.142 -0.629,0.469 -0.689,0.857c-0.059,0.388 0.093,0.779 0.4,1.024c2.56,2.046 4.684,4.675 6.161,7.824c2.478,5.281 2.746,11.42 1.155,16.87c-0.001,0 -6.704,0.028 -6.704,0.028c1.683,-4.522 1.791,-9.797 -0.281,-14.215c-1.902,-4.055 -5.339,-6.576 -9.328,-8.138" style="fill:#bab9b5;"/>
            <path d="M183.987,177c-0.162,0.063 -0.333,0.116 -0.501,0.157c-0.249,0.06 -0.492,0.094 -0.684,0.082c-0.72,-0.047 -1.632,-0.274 -2.686,-0.579c-1.874,-0.543 -4.161,-1.345 -6.594,-2.033c-2.52,-0.696 -5.181,-1.271 -7.736,-1.399c-1.881,-0.094 -3.705,0.054 -5.38,0.542c-1.247,0.367 -2.676,0.836 -4.254,1.396c-1.883,0.669 -3.98,1.468 -6.238,2.365c-0.329,0.13 -0.613,0.34 -0.824,0.608c-0.211,0.268 -0.357,0.589 -0.408,0.938c-0.05,0.348 -0.009,0.696 0.117,1.012c0.126,0.315 0.33,0.599 0.606,0.816c1.26,0.985 2.415,2.114 3.436,3.383c0.995,1.235 1.866,2.598 2.586,4.086c1.227,2.533 1.925,5.278 2.138,8.051c0.206,2.692 -0.04,5.409 -0.711,7.986l-0.269,0.004c-1.309,0.025 -4.186,0.08 -5.435,0.104c0.692,-2.149 1.041,-4.437 0.987,-6.71c-0.059,-2.474 -0.593,-4.928 -1.679,-7.155c-0.988,-2.023 -2.35,-3.657 -3.971,-4.974c-1.629,-1.322 -3.517,-2.323 -5.542,-3.078c1.988,0.816 3.832,1.872 5.407,3.238c1.546,1.339 2.831,2.978 3.736,4.987c0.988,2.192 1.434,4.587 1.419,6.988c-0.015,2.39 -0.492,4.786 -1.351,6.992c-0.049,0.131 -0.031,0.277 0.049,0.392c0.08,0.114 0.211,0.182 0.351,0.181c-0,0 4.335,0.048 6.033,0.065c0.289,0.003 0.502,0.004 0.604,0.005c0.409,0.004 0.544,-0.312 0.544,-0.312c0.009,-0.021 0.017,-0.042 0.023,-0.064c0.857,-2.792 1.233,-5.769 1.082,-8.731c-0.149,-2.95 -0.826,-5.881 -2.062,-8.603c-0.735,-1.615 -1.635,-3.1 -2.672,-4.449c-1.072,-1.393 -2.292,-2.638 -3.629,-3.73c-0.033,-0.026 -0.054,-0.063 -0.069,-0.101c-0.014,-0.037 -0.014,-0.078 -0.008,-0.119c0.007,-0.04 0.027,-0.074 0.052,-0.105c0.024,-0.029 0.058,-0.049 0.095,-0.063c2.252,-0.847 4.343,-1.598 6.218,-2.23c1.55,-0.523 2.951,-0.965 4.174,-1.305c1.478,-0.417 3.086,-0.515 4.742,-0.426c2.415,0.131 4.93,0.669 7.313,1.325c2.437,0.655 4.729,1.432 6.608,1.944c1.214,0.331 2.268,0.553 3.095,0.592c0.347,0.016 0.786,-0.035 1.233,-0.153c0.372,-0.097 0.751,-0.236 1.085,-0.404l0.643,-0.439c0.3,-0.243 0.411,-0.652 0.273,-1.013c-0.608,-1.534 -3.907,-8.761 -7.681,-16.758c-5.482,-11.617 -11.934,-24.866 -11.991,-24.839c0.055,-0.023 5.285,12.279 10.134,23.658c1.542,3.618 3.051,7.136 4.333,10.141c1.5,3.518 2.692,6.322 3.259,7.734Z" style="fill:#808080;"/>
        </g>
        <g id="temperature">
            <rect id="temprect" x="269.71" y="102.577" width="85.422" height="103.7" style="fill:#ea6e3b;fill-opacity:0.74;stroke:#000;stroke-width:0.73px;"/>
            <path id="thermometerback" d="M325.38,118.478c-0,-6.375 -5.176,-11.552 -11.552,-11.552c-6.376,0 -11.552,5.177 -11.552,11.552l0,63.652c0,6.375 5.176,11.552 11.552,11.552c6.376,-0 11.552,-5.177 11.552,-11.552l-0,-63.652Z" style="fill:#fef7d9;stroke:#000;stroke-width:1.02px;"/>
            <path id="thermometerback1" serif:id="thermometerback" d="M310.787,192.455c-4.257,-0.653 -7.447,-5.355 -7.447,-9.864c-0,0 0.104,-64.714 0.104,-64.714c0,-4.509 3.164,-9.106 7.42,-9.759" style="fill:#fef7d9;"/>
            <path d="M310.787,192.455c-2.122,-0.436 -3.91,-1.891 -5.135,-3.804c-1.139,-1.779 -1.776,-3.953 -1.683,-6.06c-0,0.001 0.169,-3.86 0.317,-9.705c0.037,-1.499 0.065,-3.127 0.086,-4.854c0.019,-1.546 0.027,-3.172 0.032,-4.853c0.011,-3.595 0.004,-7.445 -0.009,-11.325c-0.013,-3.817 -0.037,-7.662 -0.067,-11.326c-0.061,-7.35 -0.125,-13.963 -0.19,-18.12c-0.044,-2.839 -0.094,-4.53 -0.094,-4.53c-0,-0 -0,-0.001 -0,-0.001c-0.085,-2.11 0.558,-4.26 1.697,-6.013c1.223,-1.883 3.002,-3.311 5.123,-3.746c-2.234,0.23 -4.222,1.529 -5.662,3.36c-1.411,1.794 -2.264,4.096 -2.357,6.399c-0,-0.001 -0.056,1.69 -0.109,4.529c-0.079,4.156 -0.164,10.769 -0.248,18.119c-0.042,3.664 -0.079,7.509 -0.104,11.325c-0.026,3.881 -0.045,7.731 -0.046,11.325c-0,1.682 0.003,3.307 0.017,4.854c0.015,1.727 0.037,3.355 0.07,4.854c0.129,5.846 0.286,9.707 0.286,9.707c0,0.001 0,0.001 0,0.001c0.101,2.305 0.97,4.629 2.393,6.449c1.451,1.857 3.447,3.186 5.683,3.415Z" style="fill:#d2c6a4;"/>
            <path id="thermometerinner" d="M317.83,116.285l0,67.049c0,1.987 -1.793,3.601 -4.002,3.601c-2.209,-0 -4.002,-1.614 -4.002,-3.601c-0,0 -0,-67.049 -0,-67.049c-0,-1.987 1.793,-3.601 4.002,-3.601c2.209,0 4.002,1.614 4.002,3.601Z" style="stroke:#000;stroke-width:1.02px;"/>
            <path id="thermometerreading" d="M317.83,141.388l0,43.226c0,1.281 -1.793,2.321 -4.002,2.321c-2.209,-0 -4.002,-1.04 -4.002,-2.321c-0,-0 -0,-43.226 -0,-43.226c-0,-1.281 1.793,-2.321 4.002,-2.321c2.209,-0 4.002,1.04 4.002,2.321Z" style="fill:#e77553;stroke:#000;stroke-width:0.91px;"/>
        </g>
        <text x="186.584px" y="8.581px" style="font-family:'Helvetica-Bold', 'Helvetica';font-weight:700;font-size:6px;">technique</text>
        <text x="242.905px" y="201.991px" style="font-family:'Helvetica-Bold', 'Helvetica';font-weight:700;font-size:6px;">noise</text>
        <text x="310.329px" y="201.751px" style="font-family:'Helvetica-Bold', 'Helvetica';font-weight:700;font-size:6px;">temperature</text>
        <text x="99.311px" y="8.498px" style="font-family:'Helvetica-Bold', 'Helvetica';font-weight:700;font-size:6px;">washing liquid used</text>
        <text x="14.645px" y="8.07px" style="font-family:'Helvetica-Bold', 'Helvetica';font-weight:700;font-size:6px;">water usage</text>
        <text x="117.449px" y="201.552px" style="font-family:'Helvetica-Bold', 'Helvetica';font-weight:700;font-size:6px;">time</text>
    </g>
</svg>
